<?xml version="1.0" standalone="no"?>
<!DOCTYPE svg PUBLIC "-//W3C//DTD SVG 20010904//EN"
 "http://www.w3.org/TR/2001/REC-SVG-20010904/DTD/svg10.dtd">
<svg version="1.0" xmlns="http://www.w3.org/2000/svg"
 width="1536.000000pt" height="1024.000000pt" viewBox="0 0 1536.000000 1024.000000"
 preserveAspectRatio="xMidYMid meet">

<g transform="translate(0.000000,1024.000000) scale(0.100000,-0.100000)"
fill="#000000" stroke="none">
<path d="M0 5120 l0 -5120 7680 0 7680 0 0 5120 0 5120 -7680 0 -7680 0 0
-5120z m7311 4058 c-24 -44 -35 -54 -60 -56 -35 -4 -36 0 -19 63 l12 45 49 0
49 0 -31 -52z m1520 0 c-29 -51 -54 -67 -86 -54 -11 4 -11 14 3 55 l16 51 48
0 48 0 -29 -52z m-2161 -88 c15 -15 20 -33 20 -76 l0 -55 -47 3 c-44 3 -48 5
-51 31 -2 15 -8 27 -13 27 -6 0 -8 -62 -7 -157 3 -176 21 -216 26 -58 l3 95
44 0 45 0 0 -139 0 -140 -46 -7 c-58 -8 -134 2 -154 21 -12 13 -16 52 -18 212
-3 203 3 247 36 256 10 3 45 5 80 6 50 1 66 -3 82 -19z m168 -227 l2 -243 -50
0 -50 0 0 246 0 245 48 -3 47 -3 3 -242z m255 216 c25 -31 24 -153 -2 -175
-18 -16 -18 -17 0 -35 16 -16 19 -35 19 -134 l0 -115 -50 0 -50 0 0 115 c0 70
-4 115 -10 115 -6 0 -10 -45 -10 -115 l0 -115 -50 0 -50 0 0 246 0 247 93 -6
c78 -5 95 -9 110 -28z m257 11 c19 -19 20 -33 20 -245 l0 -225 -50 0 -50 0 0
50 c0 28 -4 50 -10 50 -5 0 -10 -22 -10 -50 l0 -50 -51 0 -50 0 3 231 c4 270
-1 259 110 259 55 0 72 -4 88 -20z m254 -17 c3 -21 6 -60 7 -88 0 -37 3 -45 9
-30 5 11 9 36 9 56 1 20 4 51 7 68 6 29 9 31 50 31 54 0 54 6 14 -180 -20 -93
-30 -169 -30 -225 l0 -85 -50 0 -50 0 0 68 c0 38 -15 144 -34 238 -19 93 -32
172 -30 176 3 5 25 8 48 8 42 0 44 -1 50 -37z m456 17 c15 -15 20 -33 20 -75
l0 -55 -45 0 c-44 0 -45 1 -45 31 0 20 -4 29 -12 27 -9 -3 -14 -42 -16 -139
-3 -138 1 -179 18 -179 6 0 10 41 10 100 l0 100 45 0 45 0 0 -139 c0 -135 -1
-139 -22 -145 -35 -9 -99 -7 -140 4 -53 15 -60 50 -56 272 3 175 4 180 27 199
34 28 143 27 171 -1z m261 1 c24 -19 24 -22 27 -245 l3 -226 -55 0 -56 0 0 51
c0 31 -4 48 -10 44 -5 -3 -10 -26 -10 -51 l0 -44 -51 0 -51 0 4 226 c3 223 3
226 27 245 33 27 139 27 172 0z m175 6 c3 -8 13 -61 23 -118 l19 -104 1 118 1
117 40 0 40 0 0 -245 0 -245 -50 0 c-43 0 -50 3 -55 23 -3 12 -14 63 -24 112
l-19 90 -1 -112 -1 -113 -40 0 -40 0 0 245 0 245 50 0 c33 0 52 -5 56 -13z
m369 -12 l25 -24 0 -221 0 -220 -50 0 -50 0 0 44 c0 25 -4 48 -10 51 -6 4 -10
-13 -10 -44 l0 -51 -50 0 -50 0 0 225 c0 269 -2 265 105 265 57 0 69 -3 90
-25z m5243 -3727 l-3 -2083 -1517 -3 -1518 -2 0 2085 0 2085 1520 0 1520 0 -2
-2082z m-9576 739 c116 -68 142 -228 52 -327 -69 -76 91 -71 -1931 -68 l-1811
3 -43 30 c-106 74 -125 224 -41 317 39 43 62 58 107 69 17 4 838 6 1825 6
l1795 -2 47 -28z m-3392 -476 c0 -19 34 -31 91 -31 44 0 132 -37 161 -68 15
-15 30 -39 33 -54 l7 -28 -113 -1 c-73 0 -107 -3 -94 -9 11 -5 39 -9 63 -9 55
-1 106 -23 126 -53 28 -42 31 -109 8 -161 -32 -71 -95 -105 -229 -122 -43 -6
-53 -10 -53 -26 0 -12 -7 -19 -20 -19 -13 0 -20 7 -20 20 0 12 -8 21 -22 24
-110 21 -139 30 -172 52 -21 14 -44 41 -52 60 -27 65 -29 64 124 64 93 0 142
-4 150 -12 6 -6 14 -9 18 -5 16 16 -14 25 -105 29 -114 6 -155 23 -184 78 -23
44 -18 120 10 158 27 37 104 74 171 81 49 5 57 9 60 29 4 28 42 31 42 3z m714
-43 c53 -16 93 -59 101 -108 10 -60 -18 -107 -90 -150 l-59 -35 72 -3 72 -3 0
-89 0 -90 -250 0 -250 0 0 59 c0 86 36 130 158 194 51 27 92 55 92 63 0 8 -4
14 -10 14 -5 0 -10 -4 -10 -10 0 -6 -45 -10 -116 -10 l-117 0 6 40 c10 76 65
122 166 140 55 10 181 4 235 -12z m536 -16 c37 -18 65 -41 85 -70 27 -39 30
-54 34 -129 4 -104 -7 -146 -54 -200 -48 -57 -107 -78 -215 -78 -106 0 -167
21 -213 76 -42 49 -57 97 -57 185 0 71 22 138 58 177 69 77 247 96 362 39z
m860 12 c53 -23 107 -81 126 -137 35 -105 2 -246 -71 -301 -48 -37 -145 -60
-223 -53 -146 14 -227 91 -239 227 -14 155 62 255 217 284 40 7 152 -5 190
-20z m560 0 c114 -48 167 -188 125 -331 -31 -105 -119 -158 -260 -158 -98 0
-157 20 -205 67 -118 118 -80 360 65 419 76 31 204 32 275 3z m576 -8 c85 -39
124 -109 124 -224 0 -119 -39 -190 -127 -233 -39 -19 -65 -23 -138 -24 -110 0
-169 20 -219 75 -46 51 -59 99 -55 203 4 76 7 90 34 129 72 102 246 136 381
74z m-1586 -361 l0 -105 -120 0 -120 0 0 105 0 105 120 0 120 0 0 -105z m323
-216 c26 -7 44 -21 57 -42 27 -44 25 -57 -9 -57 -22 0 -30 6 -35 24 -11 44
-84 47 -107 5 -17 -32 -13 -88 7 -110 27 -30 85 -23 102 14 9 19 21 27 39 27
22 0 24 -3 18 -27 -23 -99 -170 -111 -225 -20 -52 84 1 179 110 196 3 1 22 -4
43 -10z m507 -18 c34 -25 50 -58 50 -109 0 -92 -104 -149 -194 -107 -45 22
-66 59 -66 119 0 102 124 159 210 97z m-1822 -3 c-3 -20 -10 -23 -60 -26 -54
-3 -58 -5 -58 -27 0 -23 4 -25 45 -25 38 0 45 -3 45 -20 0 -17 -7 -20 -45 -20
-43 0 -45 -1 -45 -30 l0 -30 61 0 c57 0 60 -1 57 -22 -3 -22 -7 -23 -88 -23
l-85 0 -3 123 -3 122 91 0 c89 0 91 -1 88 -22z m169 -60 c44 -75 48 -80 51
-53 2 15 2 52 0 82 -3 52 -2 53 25 53 l27 0 0 -125 0 -125 -34 0 c-33 0 -37 4
-88 93 l-53 92 -5 -90 c-5 -89 -5 -90 -32 -93 l-28 -3 0 125 0 126 44 0 44 0
49 -82z m403 57 c0 -24 -3 -25 -55 -25 -52 0 -55 -1 -55 -24 0 -22 5 -25 42
-28 31 -2 44 -8 46 -20 3 -15 -4 -18 -42 -18 -44 0 -46 -1 -46 -30 0 -30 1
-30 55 -30 52 0 55 -1 55 -25 0 -25 -1 -25 -85 -25 l-85 0 0 125 0 125 85 0
c84 0 85 0 85 -25z m90 -75 l0 -100 55 0 c52 0 55 -1 55 -25 0 -26 0 -26 -82
-23 l-83 3 -3 123 -3 122 31 0 30 0 0 -100z m434 -15 c25 -63 46 -120 46 -125
0 -6 -13 -10 -30 -10 -23 0 -33 7 -45 30 -14 26 -21 30 -60 30 -38 0 -46 -4
-57 -27 -9 -19 -22 -29 -41 -31 -34 -4 -35 -11 25 146 l40 102 38 0 38 0 46
-115z m506 90 c0 -22 -4 -25 -35 -25 l-35 0 0 -101 0 -100 -27 3 -28 3 -3 98
-3 97 -34 0 c-31 0 -35 3 -35 25 l0 25 100 0 100 0 0 -25z m-1842 -322 c17
-23 15 -78 -3 -93 -8 -7 -35 -15 -60 -18 l-45 -5 0 65 c0 36 3 68 8 72 12 13
86 -3 100 -21z m122 12 c0 -10 -10 -15 -30 -15 -20 0 -30 -5 -30 -15 0 -9 9
-15 25 -15 14 0 25 -4 25 -10 0 -5 -11 -10 -25 -10 -38 0 -32 -28 8 -32 49 -5
38 -23 -15 -26 l-48 -3 0 70 0 71 45 0 c33 0 45 -4 45 -15z m168 -9 c12 -12
13 -18 3 -30 -8 -10 -9 -16 -1 -21 17 -10 11 -44 -9 -55 -11 -5 -36 -10 -55
-10 l-36 0 0 63 c0 35 3 67 8 71 11 11 73 -1 90 -18z m143 6 c48 -40 17 -122
-46 -122 -40 0 -68 30 -68 72 0 36 32 68 68 68 13 0 33 -8 46 -18z m106 -24
l28 -42 5 39 c3 21 11 40 18 43 9 3 12 -15 12 -67 0 -64 -2 -71 -19 -71 -13 0
-29 17 -48 52 l-28 52 -3 -52 c-2 -37 -7 -52 -18 -52 -11 0 -14 15 -14 63 0
35 3 67 7 70 15 16 34 5 60 -35z m203 22 c11 -11 20 -33 20 -50 0 -17 -9 -39
-20 -50 -43 -43 -120 -11 -120 50 0 60 78 92 120 50z m165 6 c32 -14 35 -19
35 -54 0 -48 -16 -63 -75 -70 l-45 -5 0 65 c0 36 3 68 7 71 10 11 41 8 78 -7z
m145 -1 c0 -10 -10 -15 -30 -15 -20 0 -30 -5 -30 -15 0 -9 9 -15 25 -15 14 0
25 -4 25 -10 0 -5 -11 -10 -25 -10 -38 0 -32 -28 8 -32 49 -5 38 -23 -15 -26
l-48 -3 0 64 c0 35 3 67 7 70 3 4 24 7 45 7 27 0 38 -4 38 -15z m149 2 c20
-10 25 -21 27 -59 3 -55 -10 -68 -70 -68 l-36 0 0 70 c0 70 0 70 28 70 15 0
38 -6 51 -13z m79 -60 c2 -55 0 -67 -13 -67 -12 0 -15 14 -15 71 0 52 3 70 13
67 7 -3 13 -29 15 -71z m117 58 c0 -5 -15 -11 -32 -13 -40 -4 -46 -32 -8 -32
14 0 25 -4 25 -10 0 -5 -11 -10 -25 -10 -38 0 -32 -28 8 -32 49 -5 38 -23 -15
-26 l-48 -3 0 64 c0 35 3 67 7 71 11 10 88 3 88 -9z m82 -27 l28 -42 5 37 c8
62 25 47 28 -25 3 -62 1 -68 -17 -68 -13 0 -29 17 -50 53 l-31 52 0 -52 c0
-40 -4 -53 -15 -53 -12 0 -15 14 -15 63 0 35 3 67 7 70 15 16 34 5 60 -35z
m133 -6 c22 -59 28 -60 41 -8 12 48 25 64 39 50 14 -15 -39 -134 -60 -134 -13
0 -25 18 -43 63 -14 34 -23 66 -20 70 10 16 28 -1 43 -41z m194 33 c0 -5 -13
-12 -30 -15 -34 -6 -39 -24 -6 -28 28 -4 29 -20 0 -24 -35 -5 -33 -26 4 -30
50 -5 40 -23 -14 -26 l-48 -3 0 64 c0 35 3 67 7 71 11 10 88 3 87 -9z m83 -27
l28 -42 5 37 c8 62 25 47 28 -25 3 -62 1 -68 -17 -68 -14 0 -29 16 -48 52
l-28 52 -3 -52 c-2 -37 -7 -52 -18 -52 -11 0 -14 15 -14 63 0 35 3 67 7 70 15
16 34 5 60 -35z m113 -28 c0 -56 -3 -70 -15 -70 -12 0 -15 14 -15 63 0 35 3
67 7 70 17 18 23 1 23 -63z m129 45 c8 -8 14 -28 14 -46 0 -43 -34 -71 -82
-67 l-36 3 -3 54 c-5 78 0 85 51 77 23 -4 48 -13 56 -21z m129 -27 c11 -29 23
-61 27 -70 5 -13 2 -18 -9 -18 -9 0 -19 7 -22 15 -4 9 -19 15 -35 15 -17 0
-32 -6 -35 -15 -5 -13 -34 -22 -34 -11 0 4 22 66 39 109 18 45 45 35 69 -25z
m2756 -2535 c-17 -70 -20 -73 -72 -73 -27 0 -51 2 -54 5 -3 3 -1 26 5 50 l10
45 59 0 58 0 -6 -27z m1610 -80 c-13 -60 -40 -187 -61 -283 l-38 -175 -53 -3
c-48 -3 -52 -1 -52 19 l0 22 -26 -24 c-22 -21 -35 -24 -95 -24 -66 0 -70 2
-105 36 -31 31 -37 46 -43 95 l-6 59 -18 -82 c-10 -45 -16 -87 -12 -93 4 -6
-14 -10 -49 -10 -43 0 -56 3 -56 15 0 19 2 19 -45 -5 -83 -42 -187 -13 -211
59 l-10 32 -13 -58 c-22 -99 -59 -153 -120 -179 -45 -19 -174 -18 -211 1 -37
19 -70 62 -70 91 0 22 4 24 55 24 41 0 55 -4 55 -14 0 -20 39 -46 70 -46 46 0
83 39 105 108 l7 23 -34 -21 c-40 -24 -116 -27 -158 -5 -121 63 -83 321 57
381 39 17 116 18 146 3 12 -6 30 -21 39 -32 l16 -22 7 28 c7 25 11 27 61 27
30 0 54 -2 54 -4 0 -2 -11 -53 -25 -114 -14 -61 -25 -115 -25 -120 0 -6 13 3
30 18 31 29 79 44 180 56 70 8 90 19 90 48 0 33 -26 51 -72 51 -31 0 -45 -7
-64 -28 -19 -23 -31 -27 -73 -27 l-51 0 11 28 c27 70 86 102 191 102 114 0
174 -42 165 -115 -4 -26 -3 -28 7 -11 25 45 90 106 123 117 53 17 138 7 167
-20 l25 -23 10 38 c5 22 15 67 22 102 l12 62 57 0 57 0 -23 -107z m299 -52 c5
-5 4 -17 -2 -29 -10 -18 -15 -20 -44 -10 -42 14 -46 19 -36 45 7 19 12 21 40
13 18 -5 37 -14 42 -19z m-153 -18 c0 -6 -16 -21 -36 -32 -35 -21 -37 -21 -49
-4 -17 22 -12 29 33 52 37 19 51 14 52 -16z m631 -2 c38 -38 38 -72 -1 -246
-16 -74 -30 -137 -30 -140 0 -3 -25 -5 -55 -5 -37 0 -55 4 -55 12 0 7 12 72
27 145 31 149 28 166 -26 171 -38 4 -75 -18 -95 -56 -8 -15 -24 -72 -35 -127
-12 -55 -25 -110 -28 -122 -5 -20 -11 -23 -60 -23 l-56 0 7 38 c3 20 9 48 12
62 6 24 6 24 -9 5 -14 -18 -17 -18 -31 -5 -12 12 -13 21 -3 53 10 30 17 37 38
37 25 0 27 4 49 110 l23 110 55 0 c54 0 54 0 47 -27 l-7 -28 24 21 c39 36 61
43 121 44 52 0 62 -4 88 -29z m-2421 6 c0 -18 -88 -416 -101 -454 -6 -18 -24
-44 -40 -58 -26 -22 -40 -25 -101 -25 l-70 0 6 31 c3 17 6 38 6 45 0 10 13 14
40 14 27 0 42 5 48 18 9 16 28 95 82 345 l22 97 54 0 c37 0 54 -4 54 -13z
m114 -94 c-45 -204 -43 -223 21 -223 70 0 98 47 135 223 l23 107 58 0 57 0 -8
-37 c-28 -127 -80 -365 -80 -369 0 -2 -25 -4 -55 -4 -55 0 -55 0 -49 27 l7 26
-38 -29 c-34 -25 -47 -29 -106 -29 -124 0 -136 36 -88 260 l33 155 57 0 57 0
-24 -107z m1914 12 c16 -36 15 -65 -3 -65 -8 0 -18 -1 -22 -2 -12 -5 -31 66
-20 80 15 19 33 14 45 -13z m-139 -11 c74 -52 55 -166 -36 -213 -39 -20 -73
-13 -109 23 -26 26 -34 42 -34 70 0 99 107 170 179 120z m-231 -13 c11 -7 11
-16 1 -50 -10 -34 -17 -41 -33 -39 -17 2 -20 9 -18 32 4 33 19 66 30 66 4 0
13 -4 20 -9z m15 -195 c15 -32 15 -35 -3 -51 -18 -16 -20 -16 -39 16 -22 36
-25 51 -14 62 16 16 41 4 56 -27z m285 -38 c18 -18 15 -23 -29 -52 -45 -30
-44 -30 -52 -1 -5 15 2 26 26 43 37 26 39 26 55 10z m-167 -38 c15 0 19 -7 19
-31 0 -31 -1 -31 -37 -24 -21 3 -42 10 -46 15 -14 13 12 52 30 46 8 -3 23 -6
34 -6z m-957 -99 c-6 -28 -5 -29 27 -28 32 2 34 0 37 -36 5 -55 -18 -77 -74
-75 -24 1 -44 6 -44 10 0 4 7 41 17 83 10 47 21 75 29 75 10 0 12 -9 8 -29z
m277 -21 c5 0 9 -4 9 -10 0 -5 -7 -10 -15 -10 -18 0 -34 -72 -16 -78 21 -7 11
-22 -15 -22 -26 0 -26 1 -20 50 4 32 3 50 -4 50 -5 0 -10 5 -10 10 0 6 5 10
11 10 6 0 18 8 27 17 16 16 17 16 20 0 2 -9 8 -17 13 -17z m1082 -21 c-6 -23
-23 -26 -23 -4 0 8 -7 15 -15 15 -9 0 -12 -6 -8 -17 5 -13 2 -15 -11 -10 -10
4 -15 3 -11 -3 5 -9 -34 -6 -71 5 -6 2 -17 -1 -25 -6 -8 -5 -22 -3 -35 6 -13
8 -26 10 -35 4 -14 -9 -99 -13 -99 -5 0 35 35 47 56 19 13 -17 13 -17 14 0 0
23 70 25 70 2 0 -8 5 -15 10 -15 6 0 10 7 10 15 0 9 9 15 24 15 13 0 26 -7 30
-15 3 -8 13 -15 21 -15 9 0 13 5 9 11 -10 17 11 25 54 21 33 -3 39 -7 35 -23z
m-1170 0 c18 -29 1 -49 -43 -49 -22 0 -40 -5 -40 -10 0 -16 29 -23 44 -11 17
14 29 2 15 -16 -16 -19 -66 -16 -77 4 -12 21 2 74 25 91 23 16 63 12 76 -9z
m253 6 c4 -8 3 -35 0 -59 l-7 -44 -47 2 c-33 1 -48 5 -49 16 -5 24 12 42 47
49 19 3 36 13 38 20 4 11 -4 12 -34 7 -36 -6 -38 -5 -20 9 25 19 65 19 72 0z
m64 5 c0 -7 6 -7 20 0 16 8 20 8 20 -3 0 -8 -9 -17 -20 -20 -11 -3 -22 -17
-25 -33 -11 -47 -14 -54 -26 -54 -11 0 -6 71 8 106 6 16 23 19 23 4z m113 3
c-13 -2 -23 -9 -23 -14 0 -15 47 -10 54 6 3 8 12 15 21 15 9 0 18 -7 21 -15 4
-8 10 -15 15 -15 4 0 6 6 3 14 -4 9 3 14 20 14 14 0 23 -4 20 -9 -3 -5 0 -9 5
-9 6 0 11 5 11 10 0 6 5 10 10 10 6 0 10 -9 10 -20 0 -22 2 -21 -115 -21 -41
0 -79 0 -85 0 -5 1 -10 10 -10 21 0 16 6 20 33 19 23 -1 26 -3 10 -6z m207 -5
c0 -9 3 -9 8 -2 10 14 79 17 88 3 10 -17 -25 -40 -45 -30 -9 5 -22 6 -29 4 -7
-3 -19 0 -26 6 -11 9 -15 9 -19 -1 -3 -7 -6 -3 -6 10 -1 13 5 22 14 22 8 0 15
-6 15 -12z m170 7 c0 -2 -3 -10 -6 -19 -8 -21 -21 -20 -33 3 -9 16 -7 19 14
19 14 0 25 -2 25 -3z m426 -10 c4 -8 10 -15 15 -15 4 0 6 6 3 14 -3 9 2 14 18
14 16 0 24 -7 25 -19 2 -21 -1 -22 -67 -19 -52 2 -52 2 -44 24 8 20 43 21 50
1z m-496 -67 c0 -9 3 -9 12 0 20 20 28 13 16 -13 -14 -31 -32 -32 -46 -2 l-11
22 0 -22 c-1 -13 -5 -23 -11 -23 -5 0 -10 10 -11 23 l0 22 -10 -23 c-5 -13
-13 -20 -19 -17 -6 4 -8 10 -5 15 3 5 1 11 -5 15 -5 3 -10 -3 -10 -14 0 -12
-4 -21 -10 -21 -5 0 -10 5 -10 11 0 5 -5 7 -12 3 -20 -13 -76 -15 -83 -4 -8
13 -45 13 -45 0 0 -12 -129 -10 -136 2 -3 5 -3 15 -1 22 7 19 397 22 397 4z
m86 -3 c7 -18 25 -20 22 -3 -2 7 8 14 22 16 17 2 21 0 12 -6 -11 -7 -10 -10 3
-16 33 -12 2 -26 -56 -24 -32 2 -59 4 -59 6 0 1 6 11 12 22 15 24 36 26 44 5z
m152 3 c9 -9 12 -9 12 0 0 18 27 14 35 -5 7 -17 8 -16 15 2 8 18 9 17 9 -7 1
-19 -4 -28 -14 -28 -8 0 -15 7 -15 15 0 8 -4 15 -10 15 -5 0 -10 -8 -10 -17 0
-14 -2 -15 -9 -4 -6 9 -11 10 -15 2 -9 -14 -43 -14 -51 -1 -19 31 27 54 53 28z
m116 -30 c7 -5 5 -8 -6 -8 -22 0 -32 17 -22 38 6 15 8 15 12 -3 2 -11 9 -23
16 -27z m23 5 c-3 -10 -5 -4 -5 12 0 17 2 24 5 18 2 -7 2 -21 0 -30z m49 22
c8 -20 21 -19 27 3 3 10 5 6 6 -10 1 -32 -22 -39 -34 -10 -7 16 -8 15 -15 -3
-8 -18 -9 -17 -9 8 -1 29 16 37 25 12z m59 5 c-3 -5 2 -11 12 -11 16 -1 15 -2
-2 -7 l-20 -5 20 -8 c19 -7 19 -8 -2 -8 -18 -1 -23 5 -23 24 0 14 5 25 11 25
5 0 7 -4 4 -10z m-1495 -25 c0 -8 -7 -15 -15 -15 -9 0 -12 6 -9 15 4 8 10 15
15 15 5 0 9 -7 9 -15z m398 3 c-6 -18 -28 -21 -28 -4 0 9 7 16 16 16 9 0 14
-5 12 -12z"/>
<path d="M6990 8975 c0 -25 5 -45 10 -45 6 0 10 20 10 45 0 25 -4 45 -10 45
-5 0 -10 -20 -10 -45z"/>
<path d="M7250 8910 c0 -67 4 -110 10 -110 6 0 10 43 10 110 0 67 -4 110 -10
110 -6 0 -10 -43 -10 -110z"/>
<path d="M8220 8910 c0 -67 4 -110 10 -110 6 0 10 43 10 110 0 67 -4 110 -10
110 -6 0 -10 -43 -10 -110z"/>
<path d="M8770 8910 c0 -67 4 -110 10 -110 6 0 10 43 10 110 0 67 -4 110 -10
110 -6 0 -10 -43 -10 -110z"/>
<path d="M11777 7153 c-2 -5 -7 -20 -11 -35 -6 -27 -5 -28 33 -28 40 0 51 11
51 51 0 15 -7 19 -34 19 -19 0 -37 -3 -39 -7z"/>
<path d="M12941 7123 c-5 -21 -12 -52 -16 -69 l-6 -31 -39 19 c-57 28 -104 17
-157 -39 l-43 -43 0 30 c0 77 -169 92 -233 20 -15 -17 -25 -35 -22 -40 11 -18
70 -11 88 11 22 24 74 23 91 -3 16 -26 -2 -38 -79 -49 -38 -5 -83 -19 -102
-30 l-34 -21 7 28 c3 16 10 45 15 64 17 67 13 80 -25 80 -27 0 -36 -5 -42 -22
-5 -18 -8 -19 -15 -5 -5 8 -25 21 -45 27 -50 17 -115 -9 -150 -58 l-26 -37 7
48 6 47 -40 0 -39 0 -17 -72 c-26 -117 -34 -137 -66 -153 -22 -12 -34 -13 -49
-5 -25 13 -25 24 -1 134 21 96 19 101 -35 94 -27 -3 -29 -6 -52 -117 -26 -127
-22 -154 24 -171 37 -15 65 -12 107 9 29 15 37 16 37 5 0 -9 12 -14 35 -14 37
0 41 8 61 115 l8 40 8 -44 c10 -61 31 -88 78 -102 35 -11 46 -10 76 5 35 16
35 16 29 -6 -8 -27 -50 -68 -70 -68 -7 0 -27 11 -43 25 -30 25 -76 33 -86 16
-12 -19 13 -58 47 -74 43 -21 119 -22 157 -2 40 21 69 61 76 107 4 21 9 38 11
38 3 0 14 -11 24 -25 26 -33 79 -42 130 -22 21 8 39 11 39 6 0 -5 17 -9 39 -9
l39 0 7 58 8 57 9 -36 c19 -73 99 -109 166 -75 18 9 32 12 32 6 0 -5 17 -10
38 -10 l38 0 19 93 c11 50 21 82 23 70 5 -31 20 -29 33 4 12 31 -5 58 -21 33
-6 -9 -10 -10 -10 -3 0 10 22 123 35 181 5 20 2 22 -34 22 -38 0 -41 -2 -50
-37z m-641 -143 c53 -53 -12 -177 -80 -155 -10 3 -23 19 -30 35 -15 37 1 92
37 120 32 25 48 25 73 0z m588 -8 c26 -34 3 -118 -42 -147 -74 -48 -123 49
-68 133 28 43 82 49 110 14z m-304 -104 c-9 -32 -24 -49 -52 -59 -29 -11 -62
5 -62 30 0 24 18 38 55 44 65 9 67 9 59 -15z"/>
<path d="M13170 7046 c0 -19 39 -31 53 -17 9 9 8 14 -3 21 -22 14 -50 12 -50
-4z"/>
<path d="M13467 7050 c-16 -5 -35 -14 -43 -21 -11 -9 -14 -8 -14 5 0 12 -9 16
-34 16 -38 0 -37 2 -57 -93 -10 -45 -18 -61 -34 -67 -31 -12 -40 -51 -14 -57
16 -5 18 -11 13 -39 l-6 -34 40 0 c40 0 41 1 48 38 23 139 49 192 93 192 47 0
51 -15 31 -115 -26 -121 -26 -117 17 -113 l38 3 22 95 c12 52 22 107 23 121 0
54 -60 88 -123 69z"/>
<path d="M11720 6898 c-18 -84 -37 -159 -43 -166 -6 -7 -19 -11 -29 -9 -19 5
-38 -18 -38 -47 0 -12 11 -16 48 -16 54 0 84 17 100 57 9 22 72 310 72 328 0
3 -17 5 -39 5 l-38 0 -33 -152z"/>
<path d="M13064 7036 c-14 -11 -16 -18 -8 -26 14 -14 54 7 54 27 0 17 -22 16
-46 -1z"/>
<path d="M13263 6988 c-15 -19 2 -59 22 -52 18 7 19 24 2 48 -11 15 -15 15
-24 4z"/>
<path d="M13096 6958 c-37 -32 -43 -76 -16 -111 31 -39 79 -37 114 4 32 38 33
79 3 107 -30 28 -69 28 -101 0z"/>
<path d="M12995 6840 c-7 -11 12 -50 25 -50 16 0 21 19 10 40 -12 22 -25 26
-35 10z"/>
<path d="M13196 6785 c-14 -11 -17 -18 -9 -26 13 -13 53 9 53 28 0 17 -20 16
-44 -2z"/>
<path d="M13075 6759 c-9 -13 -6 -16 28 -24 23 -6 27 -4 27 14 0 16 -6 21 -24
21 -14 0 -28 -5 -31 -11z"/>
<path d="M11312 6198 l3 -153 155 0 155 0 3 153 3 152 -161 0 -161 0 3 -152z
m266 5 l-3 -108 -107 -3 -108 -3 0 111 0 110 110 0 111 0 -3 -107z"/>
<path d="M11400 6200 l0 -71 68 3 67 3 3 68 3 67 -71 0 -70 0 0 -70z"/>
<path d="M11810 6285 l0 -65 45 0 c41 0 45 2 45 25 0 18 5 25 20 25 14 0 20
-7 20 -21 0 -12 -8 -23 -20 -26 -11 -3 -20 -14 -20 -24 0 -14 -7 -19 -25 -19
-20 0 -25 -5 -25 -25 0 -20 5 -25 25 -25 18 0 25 -5 25 -20 0 -15 -7 -20 -25
-20 -19 0 -25 -5 -25 -21 0 -12 -8 -23 -20 -26 -11 -3 -20 -14 -20 -24 0 -17
9 -19 90 -19 l90 0 0 -45 c0 -38 3 -45 20 -45 15 0 20 -7 20 -25 0 -24 -2 -25
-65 -25 -58 0 -65 -2 -65 -20 0 -18 -7 -20 -70 -20 l-70 0 0 45 c0 41 2 45 25
45 18 0 25 5 25 20 0 15 -7 20 -25 20 -18 0 -25 -5 -25 -20 0 -13 -7 -20 -20
-20 -17 0 -19 8 -22 88 -3 81 -5 87 -25 90 -19 3 -22 -2 -25 -40 -3 -43 -3
-43 -45 -46 -38 -3 -43 -6 -43 -28 0 -17 -5 -24 -20 -24 -13 0 -20 -7 -20 -20
0 -13 7 -20 20 -20 15 0 20 -7 20 -26 0 -21 4 -25 23 -22 14 2 23 11 25 26 3
18 -1 22 -22 22 -19 0 -26 5 -26 20 0 14 7 20 21 20 12 0 23 -8 26 -20 4 -16
14 -20 49 -20 l44 0 0 -45 0 -45 -70 0 c-68 0 -70 -1 -70 -25 0 -19 5 -25 21
-25 12 0 23 -8 26 -20 3 -11 14 -20 24 -20 17 0 19 -8 19 -71 0 -67 1 -70 23
-67 20 3 22 8 22 68 0 60 -2 65 -22 68 -15 2 -23 10 -23 22 0 12 8 20 23 22
14 2 23 11 25 26 2 14 10 22 23 22 16 0 19 -7 19 -45 l0 -45 45 0 c42 0 45 -2
45 -26 0 -21 4 -25 23 -22 14 2 23 11 25 26 2 14 10 22 23 22 16 0 19 -7 19
-45 l0 -45 70 0 c69 0 70 -1 70 -26 0 -19 5 -25 17 -22 26 5 29 38 4 45 -17 4
-21 13 -21 49 l0 44 65 0 c63 0 65 -1 65 -25 0 -23 4 -25 45 -25 38 0 45 -3
45 -20 0 -15 7 -20 25 -20 18 0 25 5 25 20 0 13 7 20 20 20 12 0 20 -7 20 -16
0 -9 -9 -18 -20 -21 -13 -3 -20 -14 -20 -29 0 -22 4 -24 45 -24 l45 0 0 45 0
45 45 0 c38 0 45 -3 45 -20 0 -15 -7 -20 -25 -20 -23 0 -25 -4 -25 -45 l0 -45
-110 0 c-103 0 -110 1 -110 20 0 15 -7 20 -25 20 -20 0 -25 5 -25 25 0 18 -5
25 -20 25 -18 0 -20 -7 -20 -70 0 -68 -1 -70 -25 -70 -18 0 -25 -5 -25 -20 0
-15 7 -20 25 -20 20 0 25 -5 25 -25 0 -23 -4 -25 -45 -25 l-45 0 0 70 0 70
-44 0 c-35 0 -45 4 -49 20 -3 12 -14 20 -26 20 -14 0 -21 -6 -21 -20 0 -15 7
-20 25 -20 20 0 25 -5 25 -25 0 -18 5 -25 20 -25 17 0 20 -7 20 -45 0 -38 -3
-45 -20 -45 -13 0 -20 -7 -20 -19 0 -16 8 -20 43 -23 35 -2 43 -7 45 -25 3
-19 -1 -23 -22 -23 -24 0 -26 -3 -26 -45 l0 -45 45 0 c41 0 45 2 45 25 0 20 5
25 25 25 23 0 25 -4 25 -45 0 -38 3 -45 20 -45 13 0 20 7 20 20 0 15 7 20 25
20 20 0 25 5 25 25 0 18 5 25 20 25 18 0 20 -7 20 -70 0 -63 -2 -70 -20 -70
-13 0 -20 -7 -20 -20 0 -17 -7 -20 -45 -20 -38 0 -45 3 -45 20 0 15 -7 20 -24
20 -18 0 -25 6 -28 22 -2 13 -11 24 -20 26 -15 3 -18 -4 -18 -42 0 -39 3 -46
20 -46 15 0 20 -7 20 -25 0 -18 -5 -25 -20 -25 -17 0 -20 -7 -20 -45 l0 -45
45 0 c38 0 45 -3 45 -20 0 -13 7 -20 20 -20 13 0 20 7 20 20 0 15 7 20 25 20
18 0 25 -5 25 -19 0 -16 8 -20 43 -23 42 -3 42 -3 45 -45 3 -40 1 -43 -22 -43
-21 0 -26 -5 -26 -25 0 -23 -4 -25 -45 -25 -41 0 -45 2 -45 25 0 18 -5 25 -19
25 -10 0 -21 9 -24 20 -3 12 -14 20 -26 20 -18 0 -21 -6 -21 -45 l0 -45 45 0
c38 0 45 -3 45 -20 0 -17 7 -20 45 -20 41 0 45 -2 45 -25 0 -20 5 -25 25 -25
20 0 25 5 25 25 0 20 -5 25 -25 25 -18 0 -25 5 -25 20 0 14 7 20 21 20 12 0
23 -8 26 -20 3 -11 14 -20 24 -20 16 0 19 -8 19 -45 0 -38 -3 -45 -20 -45 -17
0 -20 -7 -20 -45 0 -41 -2 -45 -25 -45 -18 0 -25 5 -25 20 0 13 -7 20 -20 20
-17 0 -20 -7 -20 -44 0 -35 4 -45 20 -49 11 -3 20 -12 20 -21 0 -12 -10 -16
-45 -16 -41 0 -45 -2 -45 -25 0 -18 -5 -25 -20 -25 -13 0 -20 -7 -20 -20 0
-15 -7 -20 -25 -20 -23 0 -25 4 -25 45 l0 45 -46 0 c-38 0 -45 3 -42 18 2 12
14 18 41 20 32 3 39 0 44 -17 3 -14 13 -21 29 -21 22 0 24 4 24 45 0 38 3 45
20 45 13 0 20 7 20 20 0 13 -7 20 -20 20 -15 0 -20 7 -20 25 0 20 -5 25 -25
25 -23 0 -25 -4 -25 -45 0 -37 -3 -45 -19 -45 -10 0 -21 9 -24 20 -4 16 -14
20 -46 20 -37 0 -41 2 -41 25 0 19 5 25 21 25 14 0 19 5 17 17 -5 26 -38 29
-38 4 0 -16 -6 -21 -25 -21 -23 0 -25 4 -25 45 l0 45 46 0 c38 0 45 3 42 18
-2 12 -15 18 -46 20 -37 3 -42 1 -42 -17 0 -28 -36 -28 -43 -1 -3 12 -14 20
-26 20 -16 0 -21 6 -21 25 0 20 5 25 25 25 23 0 25 4 25 45 0 38 3 45 20 45
17 0 20 7 20 45 0 41 2 45 25 45 23 0 25 4 25 45 0 41 -2 45 -25 45 -18 0 -25
5 -25 20 0 15 7 20 26 20 21 0 25 4 22 23 -2 14 -11 23 -25 25 -19 3 -23 -1
-23 -22 0 -24 -3 -26 -45 -26 -41 0 -45 2 -45 25 0 20 5 25 25 25 18 0 25 5
25 19 0 10 9 21 20 24 18 5 20 14 20 91 0 79 -2 86 -20 86 -17 0 -20 7 -20 45
0 41 -2 45 -25 45 -20 0 -25 5 -25 25 0 18 -5 25 -20 25 -13 0 -20 7 -20 20 0
17 7 20 45 20 41 0 45 2 45 25 0 23 -4 25 -45 25 -38 0 -45 3 -45 20 0 15 -7
20 -25 20 -24 0 -25 -2 -25 -65 0 -63 1 -65 25 -65 20 0 25 -5 25 -25 0 -18 5
-25 20 -25 18 0 20 -7 20 -65 0 -63 1 -65 25 -65 23 0 25 -4 25 -45 l0 -45
-69 0 -70 0 -3 42 c-2 31 -8 44 -20 46 -11 2 -18 -5 -20 -20 -2 -15 -11 -24
-25 -26 -21 -3 -23 1 -23 42 0 39 3 45 23 48 14 2 23 11 25 26 2 14 10 22 23
22 12 0 19 7 19 20 0 17 -7 20 -44 20 -39 0 -45 3 -48 23 -2 18 -10 23 -45 25
-40 3 -43 1 -43 -22 0 -21 5 -26 26 -26 33 0 30 -33 -4 -38 -16 -3 -22 -10
-22 -28 0 -32 -37 -34 -42 -1 -2 14 -11 23 -25 25 -19 3 -23 -1 -23 -22 0 -21
5 -26 25 -26 18 0 25 -5 25 -20 0 -13 7 -20 20 -20 15 0 20 -7 20 -25 0 -24
-2 -25 -65 -25 l-65 0 0 45 0 45 -45 0 c-42 0 -45 2 -45 26 0 21 -4 25 -22 22
-15 -2 -23 -10 -23 -23 0 -13 8 -21 23 -23 19 -3 22 -9 22 -47 0 -38 -3 -44
-22 -47 -21 -3 -23 -8 -23 -63 0 -55 2 -60 23 -63 17 -3 22 2 22 18 0 15 5 20
17 18 26 -5 29 -38 4 -38 -16 0 -21 -6 -21 -25 0 -18 5 -25 20 -25 13 0 20 -7
20 -20 0 -13 -7 -20 -20 -20 -17 0 -20 -7 -20 -44 0 -39 -3 -45 -22 -48 -23
-3 -23 -6 -23 -133 0 -127 0 -130 23 -133 15 -2 22 -10 22 -27 0 -14 7 -25 20
-28 16 -4 20 -14 20 -46 0 -34 -3 -41 -20 -41 -17 0 -20 7 -20 46 0 41 -2 45
-22 42 -22 -3 -23 -8 -26 -106 -3 -101 -2 -102 23 -112 21 -8 25 -16 25 -49 0
-33 -3 -40 -22 -43 -15 -2 -24 -11 -26 -25 -3 -19 1 -23 22 -23 21 0 26 5 26
25 0 23 4 25 46 25 38 0 45 3 42 18 -2 9 -13 18 -26 20 -20 3 -22 9 -22 73 0
67 1 70 23 67 18 -2 23 -10 25 -44 2 -32 8 -43 23 -47 16 -4 19 -14 19 -71 0
-59 -2 -66 -20 -66 -13 0 -20 -7 -20 -20 0 -15 -7 -20 -25 -20 -20 0 -25 -5
-25 -25 0 -18 -5 -25 -20 -25 -13 0 -20 7 -20 20 0 25 -29 38 -41 19 -5 -8 -9
-29 -9 -46 l0 -33 115 0 c109 0 115 1 115 21 0 18 5 20 42 17 31 -2 44 -8 46
-20 3 -13 -3 -18 -22 -18 -21 0 -26 -5 -26 -24 0 -22 5 -25 43 -28 42 -3 42
-3 47 -48 4 -37 9 -45 25 -45 13 0 21 8 23 21 2 12 12 24 23 27 13 4 19 12 17
24 -2 13 -14 19 -46 21 -37 3 -42 6 -42 28 0 19 5 24 25 24 18 0 25 5 25 20 0
13 7 20 20 20 15 0 20 7 20 25 0 20 5 25 26 25 23 0 25 3 22 43 -2 35 -7 43
-25 45 -19 3 -23 -1 -23 -22 0 -19 -5 -26 -20 -26 -17 0 -19 8 -22 68 -3 61
-5 67 -25 70 -13 2 -23 10 -23 19 0 8 -9 17 -20 20 -13 3 -20 14 -20 29 0 22
-4 24 -45 24 -38 0 -45 3 -45 20 0 17 7 20 41 20 32 0 42 -4 46 -19 4 -15 15
-21 47 -23 33 -2 42 -7 44 -24 2 -12 12 -24 23 -27 10 -3 19 -12 19 -21 0 -10
9 -16 25 -16 18 0 25 5 25 20 0 13 7 20 20 20 18 0 20 -7 20 -64 l0 -65 43 -3
c35 -2 43 -7 45 -25 3 -18 -2 -23 -17 -23 -28 0 -28 -36 -1 -43 12 -3 20 -14
20 -26 0 -18 6 -21 45 -21 l45 0 0 90 c0 85 1 90 21 90 12 0 23 -8 26 -20 3
-11 14 -20 24 -20 16 0 19 -8 19 -45 0 -38 -3 -45 -20 -45 -17 0 -20 -7 -20
-44 0 -35 4 -45 20 -49 12 -3 20 -14 20 -26 0 -20 -5 -21 -89 -21 -85 0 -90 1
-93 23 -3 20 -9 22 -65 25 -61 3 -63 2 -63 -22 0 -22 5 -25 43 -28 35 -2 43
-7 45 -25 3 -19 -1 -23 -22 -23 -18 0 -25 -6 -28 -22 -2 -19 -10 -24 -45 -26
-51 -4 -62 -32 -14 -32 42 0 61 -10 61 -31 0 -14 7 -19 25 -19 18 0 25 -5 25
-19 0 -10 9 -21 20 -24 12 -3 20 -14 20 -26 0 -15 6 -21 21 -21 12 0 23 -8 26
-20 3 -11 13 -20 23 -20 10 0 20 9 23 20 4 16 14 20 46 20 34 0 41 -3 41 -20
0 -13 -7 -20 -20 -20 -15 0 -20 -7 -20 -25 0 -18 5 -25 20 -25 15 0 20 7 20
25 0 23 4 25 45 25 l45 0 0 105 c0 98 -1 105 -20 105 -17 0 -20 -7 -20 -40 0
-36 -2 -40 -25 -40 -22 0 -25 4 -25 40 0 33 -3 40 -20 40 -15 0 -20 7 -20 25
0 25 1 25 90 25 l90 0 0 -40 0 -40 45 0 c33 0 45 4 45 14 0 10 14 16 43 18 35
2 43 7 45 26 2 14 10 22 23 22 28 0 28 -75 -1 -83 -11 -3 -20 -14 -20 -25 0
-11 9 -22 20 -25 11 -3 20 -12 20 -21 0 -9 -8 -16 -20 -16 -13 0 -20 7 -20 20
0 18 -7 20 -70 20 -62 0 -70 -2 -70 -19 0 -13 8 -21 23 -23 14 -2 23 -11 25
-25 3 -20 10 -23 44 -23 31 0 41 -4 45 -20 3 -11 13 -20 23 -20 10 0 20 9 23
20 3 12 14 20 25 20 14 0 22 8 24 23 2 18 10 23 46 25 39 3 42 1 42 -22 0 -21
-5 -26 -25 -26 -18 0 -25 -5 -25 -20 0 -17 -7 -20 -45 -20 -41 0 -45 -2 -45
-25 0 -25 1 -25 90 -25 89 0 90 0 90 25 0 20 5 25 25 25 18 0 25 5 25 20 0 15
-7 20 -25 20 -20 0 -25 5 -25 25 0 20 5 25 24 25 16 0 26 7 29 21 6 24 30 21
35 -4 2 -12 -3 -17 -17 -17 -29 0 -29 -45 -1 -53 11 -3 20 -12 20 -21 0 -12
10 -16 45 -16 35 0 45 4 45 16 0 9 -9 18 -20 21 -16 4 -20 14 -20 45 0 31 4
41 20 45 11 3 20 14 20 25 0 11 -9 22 -20 25 -37 10 -22 32 23 35 35 2 43 7
45 26 2 14 10 22 22 22 12 0 20 -8 22 -22 2 -15 11 -24 26 -26 12 -2 22 -10
22 -18 0 -8 9 -14 20 -14 15 0 20 -7 20 -25 0 -20 5 -25 25 -25 18 0 25 -5 25
-20 0 -15 -7 -20 -25 -20 -23 0 -25 -4 -25 -45 0 -37 -3 -45 -19 -45 -11 0
-21 9 -24 21 -7 25 -40 22 -45 -4 -3 -12 3 -17 22 -17 21 0 26 -5 26 -25 0
-18 5 -25 20 -25 15 0 20 7 20 25 0 23 4 25 45 25 41 0 45 -2 45 -25 0 -23 4
-25 44 -25 l45 0 3 43 c2 35 7 43 26 45 16 3 22 10 22 28 0 17 5 24 20 24 13
0 20 7 20 20 0 14 7 20 21 20 12 0 23 -8 26 -20 3 -11 14 -20 24 -20 16 0 19
-8 19 -45 0 -37 -3 -45 -19 -45 -11 0 -21 9 -24 21 -7 25 -40 22 -45 -4 -3
-12 3 -17 22 -17 21 0 26 -5 26 -25 0 -23 4 -25 45 -25 l44 0 3 67 c2 55 6 68
21 71 14 3 17 -4 17 -42 0 -42 2 -46 25 -46 20 0 25 -5 25 -25 0 -23 4 -25 46
-25 l45 0 -3 43 c-2 35 -7 43 -25 45 -15 2 -23 10 -23 24 0 12 -8 22 -20 25
-36 9 -19 38 23 41 32 3 39 0 44 -17 7 -27 39 -27 46 -1 3 12 14 20 26 20 14
0 21 -6 21 -20 0 -18 7 -20 65 -20 l65 0 0 40 c0 34 4 41 25 46 14 3 25 12 25
20 0 11 -17 14 -70 14 l-70 0 0 46 c0 37 -4 47 -20 51 -13 3 -20 14 -20 29 0
17 6 24 20 24 13 0 20 7 20 20 0 13 -7 20 -20 20 -15 0 -20 7 -20 26 0 21 -4
25 -22 22 -15 -2 -24 -11 -26 -25 -5 -33 -42 -31 -42 2 0 20 -5 25 -25 25 -18
0 -25 5 -25 20 0 13 -7 20 -20 20 -27 0 -27 40 0 47 16 4 20 15 22 66 2 50 6
62 21 65 12 2 20 -4 24 -16 3 -11 13 -22 24 -25 25 -7 25 -43 -1 -50 -11 -3
-20 -12 -20 -21 0 -12 10 -16 45 -16 l45 0 0 41 c0 32 4 42 19 46 15 4 21 15
23 47 2 34 7 42 26 44 20 3 22 -1 22 -42 0 -42 -2 -46 -25 -46 -20 0 -25 -5
-25 -25 0 -20 5 -25 25 -25 20 0 25 5 25 25 0 23 4 25 45 25 38 0 45 3 45 20
0 15 -7 20 -25 20 -24 0 -25 2 -25 70 0 63 -2 70 -20 70 -13 0 -20 7 -20 20 0
15 -7 20 -25 20 -18 0 -25 -5 -25 -20 0 -17 -7 -20 -45 -20 l-46 0 3 63 3 62
68 3 c62 3 67 1 67 -18 0 -13 7 -20 20 -20 13 0 20 7 20 20 0 15 7 20 25 20
23 0 25 4 25 45 0 41 -2 45 -25 45 -20 0 -25 5 -25 25 0 23 -4 25 -45 25 l-45
0 0 -45 0 -45 -90 0 c-83 0 -90 1 -90 20 0 17 -7 20 -45 20 -38 0 -45 -3 -45
-20 0 -17 -7 -20 -45 -20 -38 0 -45 3 -45 20 0 15 7 20 25 20 20 0 25 5 25 25
0 20 -5 25 -25 25 -18 0 -25 5 -25 20 0 17 7 20 45 20 38 0 45 -3 45 -20 0
-15 7 -20 25 -20 18 0 25 5 25 20 0 19 7 20 90 20 83 0 90 -1 90 -20 0 -13 7
-20 19 -20 10 0 21 9 24 20 4 16 14 20 46 20 37 0 41 2 41 25 0 20 5 25 25 25
18 0 25 5 25 20 0 15 -7 20 -25 20 -20 0 -25 5 -25 25 0 20 5 25 25 25 24 0
25 2 25 65 0 63 -1 65 -25 65 -24 0 -25 -2 -25 -65 0 -58 -2 -65 -20 -65 -13
0 -20 7 -20 20 0 15 -7 20 -26 20 -23 0 -25 3 -22 43 2 35 7 43 26 45 16 3 22
10 22 28 0 17 5 24 20 24 13 0 20 7 20 20 0 15 7 20 25 20 23 0 25 4 25 45 0
41 -2 45 -25 45 -20 0 -25 5 -25 25 0 23 -4 25 -45 25 l-45 0 0 -45 c0 -41 2
-45 25 -45 23 0 25 -4 25 -44 l0 -45 -42 -3 c-36 -3 -44 -7 -46 -26 -3 -20 -8
-23 -45 -20 -35 2 -43 7 -45 26 -3 16 -10 22 -28 22 -17 0 -24 5 -24 20 0 13
-7 20 -20 20 -15 0 -20 7 -20 25 0 18 5 25 20 25 13 0 20 7 20 20 0 15 7 20
25 20 18 0 25 -5 25 -20 0 -13 7 -20 20 -20 13 0 20 7 20 20 0 15 7 20 25 20
23 0 25 4 25 45 0 41 -2 45 -25 45 -20 0 -25 5 -25 25 0 23 4 25 45 25 38 0
45 3 45 20 0 15 7 20 25 20 23 0 25 -4 25 -45 0 -38 3 -45 20 -45 15 0 20 7
20 25 0 20 5 25 25 25 23 0 25 4 25 45 0 41 -2 45 -25 45 -18 0 -25 5 -25 20
0 13 -7 20 -20 20 -15 0 -20 7 -20 25 0 18 5 25 20 25 13 0 20 7 20 20 0 15 7
20 25 20 25 0 25 1 25 90 l0 90 -90 0 c-89 0 -90 0 -90 25 0 20 -5 25 -25 25
-20 0 -25 -5 -25 -25 0 -18 -5 -25 -20 -25 -15 0 -20 7 -20 25 0 25 -1 25 -90
25 l-90 0 0 65 c0 58 2 65 20 65 19 0 20 7 20 110 l0 110 -90 0 c-83 0 -90 -1
-90 -20 0 -13 -7 -20 -20 -20 -13 0 -20 7 -20 20 0 15 -7 20 -25 20 -18 0 -25
-5 -25 -20 0 -13 -7 -20 -20 -20 -13 0 -20 -7 -20 -20 0 -17 7 -20 45 -20 l45
0 0 -70 c0 -68 -1 -70 -26 -70 -23 0 -25 -3 -22 -42 2 -36 7 -44 26 -46 19 -3
22 -9 22 -48 0 -40 -2 -44 -25 -44 -20 0 -25 5 -25 25 0 24 -2 25 -65 25 l-65
0 0 45 c0 41 -2 45 -25 45 -23 0 -25 -4 -25 -45 0 -41 2 -45 25 -45 23 0 25
-4 25 -45 l0 -45 -70 0 c-68 0 -70 -1 -70 -25 0 -18 -5 -25 -20 -25 -17 0 -20
7 -20 45 l0 45 45 0 45 0 0 70 c0 68 -1 70 -25 70 -20 0 -25 -5 -25 -25 0 -18
-5 -25 -20 -25 -15 0 -20 7 -20 25 0 34 -47 37 -52 3 -2 -13 -11 -24 -20 -26
-15 -3 -18 4 -18 42 0 42 -2 46 -25 46 -23 0 -25 4 -25 45 l0 45 -65 0 c-63 0
-65 1 -65 25 0 18 5 25 20 25 17 0 20 7 20 40 0 33 -3 40 -20 40 -13 0 -20 -7
-20 -20 0 -15 -7 -20 -25 -20 -18 0 -25 5 -25 20 0 17 -7 20 -45 20 l-45 0 0
-40 c0 -33 -3 -40 -20 -40 -18 0 -20 -7 -20 -70 0 -64 2 -70 20 -70 19 0 21
-5 18 -62 l-3 -63 -62 -3 c-59 -3 -63 -4 -63 -27 0 -23 4 -25 45 -25 l45 0 0
-45 c0 -41 -2 -45 -25 -45 -20 0 -25 5 -25 25 0 18 -5 25 -20 25 -15 0 -20 -7
-20 -25 0 -18 5 -25 20 -25 13 0 20 -7 20 -20 0 -13 -7 -20 -19 -20 -16 0 -20
-8 -23 -42 -2 -36 -7 -44 -25 -46 -22 -3 -23 0 -23 62 0 59 -2 66 -20 66 -15
0 -20 7 -20 25 0 20 -5 25 -25 25 -20 0 -25 -5 -25 -25 0 -23 -4 -25 -44 -25
l-45 0 -3 -42 c-3 -43 -3 -43 -44 -46 -32 -2 -43 -8 -47 -23 -4 -15 -14 -19
-46 -19 -34 0 -41 3 -41 20 0 17 7 20 45 20 41 0 45 2 45 25 0 20 5 25 25 25
23 0 25 4 25 45 l0 45 45 0 c38 0 45 3 45 20 0 15 -7 20 -25 20 -20 0 -25 5
-25 25 0 24 2 25 70 25 68 0 70 -1 70 -25 0 -18 5 -25 20 -25 17 0 20 7 20 44
0 39 3 45 23 48 14 2 23 11 25 26 5 33 42 30 42 -4 0 -21 4 -25 23 -22 14 2
23 11 25 26 3 18 -1 22 -22 22 -24 0 -26 3 -26 45 0 38 -3 45 -20 45 -17 0
-20 7 -20 45 0 41 -2 45 -25 45 -18 0 -25 5 -25 20 0 15 7 20 25 20 18 0 25 5
25 20 0 18 -7 20 -70 20 -63 0 -70 -2 -70 -20 0 -13 -7 -20 -20 -20 -13 0 -20
-7 -20 -20 0 -13 7 -20 20 -20 15 0 20 -7 20 -25 0 -20 5 -25 25 -25 18 0 25
-5 25 -20 0 -17 -7 -20 -45 -20 -38 0 -45 3 -45 20 0 15 -7 20 -25 20 -23 0
-25 4 -25 45 l0 45 -45 0 c-38 0 -45 3 -45 20 0 13 -7 20 -20 20 -17 0 -20 -7
-20 -40 0 -36 -2 -40 -25 -40 -22 0 -25 4 -25 40 l0 40 -65 0 -65 0 0 -65z
m90 5 c0 -15 -7 -20 -25 -20 -18 0 -25 5 -25 20 0 15 7 20 25 20 18 0 25 -5
25 -20z m360 0 c0 -13 7 -20 20 -20 15 0 20 -7 20 -25 0 -18 -5 -25 -20 -25
-15 0 -20 7 -20 25 0 20 -5 25 -25 25 -18 0 -25 5 -25 20 0 15 7 20 25 20 18
0 25 -5 25 -20z m310 -25 c0 -41 2 -45 25 -45 18 0 25 -5 25 -20 0 -15 -7 -20
-25 -20 -18 0 -25 5 -25 20 0 17 -7 20 -45 20 -41 0 -45 2 -45 25 0 20 5 25
25 25 18 0 25 5 25 20 0 13 7 20 20 20 17 0 20 -7 20 -45z m860 25 c0 -15 -7
-20 -25 -20 -20 0 -25 -5 -25 -25 0 -20 5 -25 25 -25 23 0 25 -4 25 -45 0 -41
-2 -45 -25 -45 -23 0 -25 -4 -25 -46 0 -38 -3 -45 -17 -42 -13 2 -19 15 -21
46 -3 37 -6 42 -28 42 -22 0 -24 -4 -24 -45 0 -38 -3 -45 -20 -45 -17 0 -20 7
-20 45 0 38 3 45 20 45 17 0 20 7 20 45 0 41 2 45 25 45 20 0 25 5 25 25 0 20
-5 25 -25 25 -18 0 -25 5 -25 20 0 18 7 20 70 20 63 0 70 -2 70 -20z m-1400
-45 c0 -18 -5 -25 -20 -25 -15 0 -20 7 -20 25 0 18 5 25 20 25 15 0 20 -7 20
-25z m50 -90 c0 -58 2 -65 20 -65 13 0 20 7 20 20 0 15 7 20 25 20 18 0 25 -5
25 -20 0 -13 7 -20 20 -20 15 0 20 -7 20 -25 0 -18 -5 -25 -20 -25 -15 0 -20
7 -20 25 0 20 -5 25 -25 25 -23 0 -25 -4 -25 -45 0 -38 -3 -45 -20 -45 -17 0
-20 7 -20 45 0 41 -2 45 -24 45 -18 0 -25 -6 -28 -22 -4 -31 -36 -36 -40 -6
-4 33 -45 38 -50 6 -5 -33 -38 -37 -38 -4 0 19 5 26 20 26 13 0 20 7 20 20 0
13 -7 20 -20 20 -15 0 -20 7 -20 25 0 18 5 25 20 25 15 0 20 -7 20 -26 0 -21
4 -25 23 -22 14 2 23 11 25 24 2 12 12 24 23 27 10 3 19 12 19 21 0 10 9 16
25 16 24 0 25 -2 25 -65z m268 3 c-2 -15 -11 -24 -25 -26 -20 -3 -23 -9 -23
-48 0 -37 -3 -44 -20 -44 -18 0 -20 7 -20 70 l0 70 46 0 c41 0 45 -2 42 -22z
m312 -93 l0 -65 -65 0 -65 0 0 65 0 65 65 0 65 0 0 -65z m90 0 c0 -63 1 -65
25 -65 20 0 25 -5 25 -25 0 -20 -5 -25 -25 -25 -18 0 -25 -5 -25 -20 0 -15 7
-20 25 -20 20 0 25 -5 25 -25 0 -18 5 -25 20 -25 13 0 20 -7 20 -20 0 -13 -7
-20 -20 -20 -13 0 -20 7 -20 20 0 15 -7 20 -25 20 -18 0 -25 -5 -25 -20 0 -18
-7 -20 -65 -20 -63 0 -65 -1 -65 -25 0 -24 2 -25 65 -25 58 0 65 -2 65 -20 0
-15 7 -20 25 -20 23 0 25 -4 25 -45 0 -41 -2 -45 -25 -45 -20 0 -25 -5 -25
-25 0 -23 4 -25 45 -25 38 0 45 -3 45 -20 0 -13 -7 -20 -20 -20 -15 0 -20 -7
-20 -25 0 -18 5 -25 20 -25 13 0 20 -7 20 -20 0 -15 7 -20 25 -20 l25 0 0 110
c0 103 1 110 20 110 15 0 20 7 20 25 0 18 -5 25 -20 25 -17 0 -20 7 -20 45 0
38 3 45 20 45 13 0 20 7 20 20 0 19 7 20 90 20 l90 0 0 45 c0 41 2 45 25 45
24 0 25 -2 25 -65 0 -58 2 -65 20 -65 17 0 20 7 20 45 l0 45 45 0 45 0 0 45 0
45 70 0 c68 0 70 -1 70 -25 0 -18 5 -25 20 -25 13 0 20 -7 20 -20 0 -15 7 -20
25 -20 23 0 25 -4 25 -45 0 -38 3 -45 20 -45 18 0 20 7 20 65 0 63 1 65 25 65
18 0 25 -5 25 -20 0 -13 7 -20 20 -20 15 0 20 -7 20 -25 0 -20 5 -25 25 -25
23 0 25 -4 25 -45 0 -38 3 -45 20 -45 17 0 20 7 20 45 0 41 2 45 25 45 20 0
25 5 25 25 0 18 5 25 20 25 17 0 20 -7 20 -45 0 -38 -3 -45 -20 -45 -17 0 -20
-7 -20 -45 0 -41 -2 -45 -25 -45 -24 0 -25 -2 -25 -70 l0 -70 -65 0 -65 0 0
-45 c0 -38 3 -45 20 -45 13 0 20 -7 20 -20 0 -17 -7 -20 -45 -20 -41 0 -45 -2
-45 -25 0 -18 -5 -25 -20 -25 -18 0 -20 7 -20 70 0 68 -1 70 -25 70 -18 0 -25
5 -25 20 0 17 -7 20 -45 20 l-45 0 0 70 c0 63 -2 70 -20 70 -15 0 -20 -7 -20
-26 0 -23 -3 -25 -42 -22 -36 2 -44 7 -46 26 -3 16 -10 22 -28 22 -17 0 -24 5
-24 20 0 13 -7 20 -20 20 -17 0 -20 -7 -20 -45 0 -38 3 -45 20 -45 13 0 20 -7
20 -20 0 -17 7 -20 45 -20 41 0 45 -2 45 -25 0 -18 -5 -25 -20 -25 -17 0 -20
-7 -20 -45 0 -38 3 -45 20 -45 15 0 20 7 20 25 0 20 5 25 25 25 20 0 25 -5 25
-25 0 -18 5 -25 20 -25 13 0 20 -7 20 -20 0 -13 -7 -20 -20 -20 -15 0 -20 -7
-20 -25 0 -23 4 -25 45 -25 l45 0 0 45 c0 38 3 45 20 45 17 0 20 -7 20 -45 0
-38 -3 -45 -20 -45 -13 0 -20 -7 -20 -20 0 -13 7 -20 20 -20 15 0 20 -7 20
-25 0 -20 5 -25 25 -25 24 0 25 -2 25 -65 l0 -65 -70 0 -70 0 0 -45 0 -45 45
0 45 0 0 -45 c0 -38 -3 -45 -20 -45 -13 0 -20 7 -20 20 0 15 -7 20 -25 20 -23
0 -25 -4 -25 -45 0 -38 -3 -45 -20 -45 -17 0 -20 -7 -20 -45 l0 -45 -45 0 -45
0 0 45 c0 41 -2 45 -25 45 -23 0 -25 -4 -25 -45 0 -38 -3 -45 -20 -45 -17 0
-20 -7 -20 -45 l0 -45 45 0 c38 0 45 -3 45 -20 0 -17 7 -20 45 -20 41 0 45 -2
45 -25 0 -18 5 -25 20 -25 15 0 20 7 20 25 0 20 5 25 25 25 18 0 25 5 25 20 0
17 7 20 45 20 l45 0 0 -45 0 -45 45 0 c38 0 45 -3 45 -19 0 -13 -8 -21 -22
-23 -15 -2 -24 -11 -26 -25 -3 -19 1 -23 22 -23 19 0 26 -5 26 -20 0 -18 -7
-20 -70 -20 -63 0 -70 2 -70 20 0 13 -7 20 -20 20 -17 0 -20 -7 -20 -45 0 -41
-2 -45 -25 -45 -18 0 -25 -5 -25 -20 0 -17 7 -20 44 -20 35 0 45 4 49 20 3 12
14 20 26 20 14 0 21 -6 21 -20 0 -15 -7 -20 -25 -20 -24 0 -25 -2 -25 -70 0
-68 1 -70 25 -70 23 0 25 -4 25 -45 0 -41 -2 -45 -25 -45 -20 0 -25 5 -25 25
0 23 -4 25 -45 25 -38 0 -45 3 -45 20 0 26 -30 26 -37 1 -3 -11 -15 -21 -27
-23 -17 -2 -22 -11 -24 -45 -3 -40 -1 -43 22 -43 21 0 26 -5 26 -25 0 -23 -4
-25 -40 -25 -34 0 -42 -4 -50 -25 -6 -15 -17 -25 -30 -25 -17 0 -20 -7 -20
-39 0 -40 0 -40 43 -43 34 -2 43 -7 45 -24 2 -15 -3 -23 -17 -27 -12 -3 -21
-12 -21 -21 0 -13 -13 -16 -70 -16 -67 0 -70 -1 -70 -24 0 -18 6 -25 22 -28
34 -5 37 -38 4 -38 -19 0 -26 5 -26 20 0 13 -7 20 -20 20 -15 0 -20 7 -20 25
0 18 5 25 20 25 17 0 20 7 20 45 l0 45 -45 0 c-33 0 -45 4 -45 15 0 8 -9 15
-20 15 -15 0 -20 7 -20 25 0 20 -5 25 -24 25 -23 0 -25 5 -28 48 -2 34 -7 47
-18 47 -8 0 -16 -10 -18 -22 -3 -20 -9 -23 -47 -23 -38 0 -44 -3 -47 -22 -2
-15 -11 -24 -25 -26 -14 -2 -23 -11 -25 -25 -4 -29 -32 -28 -36 1 -3 16 2 22
17 22 13 0 21 8 23 23 2 14 11 23 26 25 31 5 27 46 -5 50 -33 5 -31 42 2 42
20 0 25 5 25 25 0 18 5 25 20 25 15 0 20 -7 20 -25 0 -20 5 -25 25 -25 20 0
25 5 25 25 0 20 -5 25 -25 25 -16 0 -25 6 -25 16 0 9 -9 18 -20 21 -11 3 -20
14 -20 25 0 11 9 22 20 25 11 3 20 12 20 20 0 8 -9 17 -20 20 -29 8 -29 82 -1
90 11 3 21 15 23 27 2 13 11 22 26 24 14 2 22 10 22 23 0 12 7 19 20 19 15 0
20 7 20 25 0 18 -5 25 -20 25 -18 0 -20 7 -20 65 l0 65 -70 0 -70 0 0 -65 c0
-58 -2 -65 -20 -65 -15 0 -20 -7 -20 -25 0 -23 -4 -25 -45 -25 -38 0 -45 -3
-45 -19 0 -16 8 -20 43 -23 42 -3 42 -3 45 -45 l3 -43 -45 0 -46 0 0 45 c0 41
-2 45 -25 45 -20 0 -25 -5 -25 -25 0 -33 -37 -35 -42 -2 -2 14 -11 23 -25 25
-19 3 -23 -1 -23 -22 0 -19 -5 -26 -20 -26 -13 0 -20 -7 -20 -19 0 -10 9 -21
20 -24 12 -3 20 -14 20 -26 0 -14 -6 -21 -20 -21 -19 0 -20 -7 -20 -90 0 -89
0 -90 -25 -90 -24 0 -25 -2 -25 -66 0 -57 -3 -67 -20 -71 -13 -4 -20 -14 -20
-30 0 -20 -4 -24 -22 -21 -15 2 -24 11 -26 26 -2 14 -10 22 -23 22 -14 0 -19
7 -19 25 0 20 -5 25 -25 25 -19 0 -25 5 -25 21 0 12 -8 23 -20 26 -16 4 -20
14 -20 49 l0 44 45 0 c38 0 45 3 45 20 0 17 -7 20 -45 20 -41 0 -45 2 -45 25
0 23 4 25 45 25 38 0 45 3 45 20 0 12 7 20 16 20 9 0 18 -9 21 -20 4 -16 14
-20 48 -20 34 0 44 4 48 20 3 12 14 20 26 20 16 0 21 6 21 25 0 20 -5 25 -25
25 -18 0 -25 5 -25 20 0 13 -7 20 -20 20 -15 0 -20 7 -20 25 0 18 5 25 20 25
13 0 20 7 20 20 0 17 7 20 45 20 l46 0 -3 87 c-3 74 -6 88 -20 91 -13 2 -18
-3 -18 -17 0 -16 -6 -21 -25 -21 -23 0 -25 4 -25 45 0 42 2 45 26 45 33 0 30
33 -4 38 -20 3 -22 9 -22 73 0 67 1 70 23 67 14 -2 23 -11 25 -25 3 -20 9 -23
48 -23 l44 0 0 -90 c0 -83 1 -90 20 -90 17 0 20 -7 20 -45 0 -41 2 -45 25 -45
20 0 25 5 25 25 0 18 5 25 20 25 13 0 20 7 20 20 0 13 -7 20 -20 20 -15 0 -20
7 -20 25 0 20 -5 25 -25 25 -18 0 -25 5 -25 20 0 15 7 20 25 20 18 0 25 -5 25
-20 0 -17 7 -20 45 -20 38 0 45 3 45 20 0 15 -7 20 -25 20 -20 0 -25 5 -25 25
0 23 -4 25 -45 25 -38 0 -45 3 -45 20 0 17 7 20 45 20 38 0 45 -3 45 -20 0
-15 7 -20 25 -20 23 0 25 4 25 45 0 38 3 45 20 45 13 0 20 7 20 20 0 13 -7 20
-20 20 -17 0 -20 7 -20 45 0 38 3 45 20 45 17 0 20 -7 20 -45 0 -41 2 -45 25
-45 20 0 25 5 25 25 0 23 4 25 45 25 38 0 45 3 45 20 0 13 7 20 20 20 15 0 20
7 20 25 0 20 5 25 25 25 23 0 25 -4 25 -45 0 -41 -2 -45 -25 -45 -20 0 -25 -5
-25 -25 0 -20 5 -25 25 -25 18 0 25 -5 25 -20 0 -15 -7 -20 -25 -20 -25 0 -25
-1 -25 -90 l0 -90 45 0 c38 0 45 3 45 20 0 13 -7 20 -20 20 -15 0 -20 7 -20
25 0 23 4 25 45 25 l45 0 0 45 c0 41 -2 45 -25 45 -25 0 -25 1 -25 90 0 89 0
90 25 90 18 0 25 5 25 20 0 15 -7 20 -25 20 -23 0 -25 4 -25 45 0 38 -3 45
-20 45 -15 0 -20 7 -20 25 0 20 -5 25 -25 25 -23 0 -25 -4 -25 -45 0 -41 2
-45 25 -45 20 0 25 -5 25 -25 0 -20 -5 -25 -25 -25 -20 0 -25 5 -25 25 0 24
-2 25 -65 25 l-65 0 0 -45 0 -45 -45 0 -45 0 0 45 c0 41 -2 45 -25 45 -18 0
-25 5 -25 20 0 13 -7 20 -20 20 -15 0 -20 7 -20 25 0 20 -5 25 -25 25 -24 0
-25 -2 -25 -70 l0 -70 45 0 c38 0 45 -3 45 -20 0 -17 -7 -20 -45 -20 -38 0
-45 3 -45 20 0 13 -7 20 -20 20 -17 0 -20 7 -20 45 l0 45 -90 0 c-81 0 -90 -2
-90 -19 0 -10 9 -21 20 -24 12 -3 20 -14 20 -26 0 -18 6 -21 45 -21 l45 0 0
-65 c0 -58 -2 -65 -20 -65 -15 0 -20 -7 -20 -25 0 -23 -4 -25 -45 -25 l-45 0
0 45 c0 38 3 45 20 45 13 0 20 -7 20 -20 0 -15 7 -20 26 -20 23 0 25 3 22 43
-3 42 -3 42 -45 45 l-43 3 0 45 c0 40 -2 44 -25 44 -23 0 -25 4 -25 45 0 38
-3 45 -20 45 -13 0 -20 7 -20 20 0 15 -7 20 -25 20 -23 0 -25 -4 -25 -45 l0
-45 -45 0 c-38 0 -45 -3 -45 -20 0 -13 -7 -20 -20 -20 -13 0 -20 7 -20 20 0
13 7 20 20 20 15 0 20 7 20 25 0 20 5 25 25 25 18 0 25 5 25 20 0 13 7 20 20
20 18 0 20 7 20 70 0 68 1 70 25 70 23 0 25 -4 25 -45 0 -38 3 -45 20 -45 13
0 20 7 20 20 0 17 7 20 45 20 38 0 45 -3 45 -20 0 -13 -7 -20 -20 -20 -15 0
-20 -7 -20 -25 0 -20 -5 -25 -25 -25 -18 0 -25 -5 -25 -20 0 -18 7 -20 70 -20
l70 0 0 65 c0 58 2 65 20 65 13 0 20 -7 20 -20 0 -15 7 -20 25 -20 23 0 25 -4
25 -45 0 -38 3 -45 20 -45 13 0 20 7 20 20 0 17 7 20 45 20 l45 0 0 -45 c0
-41 2 -45 25 -45 24 0 25 2 25 70 l0 70 -70 0 c-63 0 -70 2 -70 20 0 19 7 20
90 20 89 0 90 0 90 25 0 18 -5 25 -20 25 -17 0 -20 7 -20 45 0 38 3 45 20 45
17 0 20 7 20 45 l0 45 -65 0 -65 0 0 -45 c0 -38 3 -45 20 -45 17 0 20 -7 20
-45 0 -38 -3 -45 -20 -45 -17 0 -20 7 -20 45 0 41 -2 45 -25 45 -20 0 -25 -5
-25 -25 0 -18 -5 -25 -20 -25 -15 0 -20 7 -20 25 0 18 5 25 20 25 13 0 20 7
20 20 0 13 -7 20 -20 20 -15 0 -20 7 -20 25 0 23 4 25 45 25 38 0 45 3 45 20
0 15 -7 20 -25 20 -23 0 -25 4 -25 45 l0 45 -45 0 -45 0 0 45 0 45 90 0 c83 0
90 -1 90 -20 0 -15 7 -20 25 -20 l25 0 0 110 c0 103 1 110 20 110 18 0 20 -7
20 -65z m-490 -225 c0 -15 -7 -20 -25 -20 -18 0 -25 5 -25 20 0 15 7 20 25 20
18 0 25 -5 25 -20z m-320 -45 c0 -18 -5 -25 -20 -25 -15 0 -20 7 -20 25 0 18
5 25 20 25 15 0 20 -7 20 -25z m590 0 c0 -23 -4 -25 -45 -25 -41 0 -45 2 -45
25 0 23 4 25 45 25 41 0 45 -2 45 -25z m-270 -45 c0 -15 -7 -20 -25 -20 -18 0
-25 5 -25 20 0 15 7 20 25 20 18 0 25 -5 25 -20z m1570 -135 c0 -18 -5 -25
-20 -25 -15 0 -20 7 -20 25 0 18 5 25 20 25 15 0 20 -7 20 -25z m-2205 -225
c0 -8 -10 -16 -22 -18 -18 -3 -23 2 -23 18 0 16 5 21 23 18 12 -2 22 -10 22
-18z m2205 0 c0 -13 -7 -20 -20 -20 -13 0 -20 7 -20 20 0 13 7 20 20 20 13 0
20 -7 20 -20z m-2380 -89 c0 -16 8 -20 43 -23 35 -2 43 -7 45 -25 3 -21 9 -23
68 -23 62 0 64 1 64 25 0 23 4 25 45 25 41 0 45 -2 45 -25 0 -23 4 -25 45 -25
38 0 45 -3 45 -20 0 -13 -7 -20 -20 -20 -15 0 -20 -7 -20 -25 0 -18 5 -25 20
-25 13 0 20 -7 20 -20 0 -17 7 -20 45 -20 l45 0 0 -45 0 -45 -65 0 c-58 0 -65
2 -65 20 0 17 -7 20 -45 20 l-44 0 -3 88 c-3 80 -5 87 -24 90 -15 2 -23 -3
-27 -17 -4 -18 -13 -21 -66 -21 -54 0 -61 2 -61 20 0 17 -7 20 -45 20 -41 0
-45 2 -45 25 0 23 -4 25 -45 25 -38 0 -45 3 -45 20 0 17 7 20 45 20 38 0 45
-3 45 -19z m175 -1 c0 -8 -10 -16 -22 -18 -18 -3 -23 2 -23 18 0 16 5 21 23
18 12 -2 22 -10 22 -18z m1265 -90 c0 -15 -7 -20 -25 -20 -18 0 -25 5 -25 20
0 15 7 20 25 20 18 0 25 -5 25 -20z m-1402 -118 c3 -37 1 -42 -17 -42 -18 0
-21 -6 -21 -45 l0 -45 41 0 c32 0 42 -4 46 -20 3 -11 14 -20 24 -20 12 0 19 7
19 20 0 17 7 20 41 20 32 0 42 -4 46 -20 3 -11 14 -20 25 -20 11 0 22 9 25 20
5 17 14 20 69 20 57 0 64 -2 64 -20 0 -13 -7 -20 -20 -20 -15 0 -20 -7 -20
-25 0 -23 -4 -25 -45 -25 l-45 0 0 -45 c0 -38 3 -45 20 -45 15 0 20 7 20 26 0
21 4 25 23 22 14 -2 23 -11 25 -25 2 -15 10 -23 23 -23 16 0 19 -7 19 -45 0
-41 2 -45 25 -45 18 0 25 -5 25 -20 0 -13 7 -20 20 -20 15 0 20 -7 20 -25 0
-18 -5 -25 -20 -25 -13 0 -20 -7 -20 -19 0 -16 8 -20 43 -23 35 -2 43 -7 45
-25 3 -22 0 -23 -67 -23 l-71 0 0 45 0 45 -45 0 -45 0 0 45 c0 41 2 45 25 45
23 0 25 4 25 45 0 41 -2 45 -25 45 -18 0 -25 -5 -25 -20 0 -17 -7 -20 -45 -20
l-44 0 -3 62 c-2 48 -7 64 -19 66 -10 2 -19 -5 -22 -18 -7 -27 -47 -28 -47 0
0 13 -7 20 -20 20 -15 0 -20 7 -20 25 0 23 -4 25 -45 25 l-45 0 0 -44 0 -45
43 -3 c34 -2 42 -7 42 -23 0 -16 -8 -21 -42 -23 -35 -3 -43 -7 -43 -23 0 -16
-7 -19 -45 -19 -38 0 -45 3 -45 20 0 17 7 20 45 20 41 0 45 2 45 25 0 23 -4
25 -45 25 -38 0 -45 3 -45 20 0 13 7 20 20 20 14 0 20 7 20 21 0 12 -8 23 -20
26 -16 4 -20 14 -20 49 0 37 3 44 20 44 17 0 20 7 20 45 0 41 2 45 25 45 19 0
25 5 25 21 0 14 5 19 18 17 12 -2 18 -15 20 -46z m177 -17 l0 -60 -62 -3 -63
-3 0 66 0 66 63 -3 62 -3 0 -60z m995 0 l0 -65 -65 0 -65 0 0 65 0 65 65 0 65
0 0 -65z m990 0 l0 -65 -65 0 -65 0 0 65 0 65 65 0 65 0 0 -65z m-1440 -45 c0
-13 -7 -20 -20 -20 -13 0 -20 7 -20 20 0 13 7 20 20 20 13 0 20 -7 20 -20z
m90 0 c0 -15 7 -20 25 -20 20 0 25 -5 25 -25 0 -23 -4 -25 -45 -25 l-45 0 0
45 c0 38 3 45 20 45 13 0 20 -7 20 -20z m1490 0 c0 -17 -7 -20 -45 -20 -38 0
-45 3 -45 20 0 17 7 20 45 20 38 0 45 -3 45 -20z m-450 -225 c0 -20 -5 -25
-25 -25 -18 0 -25 5 -25 18 0 24 8 32 32 32 13 0 18 -7 18 -25z m490 0 c0 -18
-5 -25 -20 -25 -15 0 -20 7 -20 25 0 18 5 25 20 25 15 0 20 -7 20 -25z m-2205
-45 c0 -8 -10 -16 -22 -18 -32 -5 -32 -49 -1 -54 13 -2 24 -11 26 -20 3 -15
-4 -18 -42 -18 l-46 0 0 45 c0 38 3 45 20 45 14 0 20 7 20 21 0 15 5 20 23 17
12 -2 22 -10 22 -18z m93 -117 c3 -40 1 -43 -22 -43 -24 0 -26 3 -26 46 0 41
2 45 23 42 18 -2 23 -10 25 -45z m1122 2 c0 -38 -3 -45 -20 -45 -17 0 -20 7
-20 45 0 38 3 45 20 45 17 0 20 -7 20 -45z m860 -65 c0 -15 -7 -20 -25 -20
-24 0 -34 18 -18 33 15 15 43 7 43 -13z m-2162 -42 c-2 -15 -11 -24 -25 -26
-19 -3 -23 1 -23 22 0 21 5 26 26 26 21 0 25 -4 22 -22z m90 -45 c-2 -10 -13
-19 -26 -21 -17 -3 -22 2 -22 17 0 16 6 21 26 21 19 0 25 -5 22 -17z m360 -50
c3 -21 -1 -23 -42 -23 -43 0 -46 2 -46 26 0 23 3 25 43 22 35 -2 43 -7 45 -25z
m580 -1 c3 -19 10 -22 48 -22 37 0 44 -3 44 -19 0 -13 8 -21 23 -23 14 -2 23
-11 25 -24 2 -12 12 -24 23 -27 25 -7 25 -37 -1 -37 -17 0 -20 -7 -20 -45 l0
-45 -45 0 -45 0 0 45 c0 41 -2 45 -25 45 -20 0 -25 -5 -25 -25 0 -18 -5 -25
-20 -25 -15 0 -20 7 -20 25 0 20 -5 25 -26 25 -23 0 -25 3 -22 43 2 35 7 43
26 45 20 3 22 -1 22 -42 0 -39 3 -46 20 -46 17 0 20 7 20 41 0 32 -4 42 -20
46 -15 4 -20 14 -20 42 0 21 3 41 7 45 12 11 28 0 31 -22z m-943 -42 c0 -8
-10 -16 -22 -18 -18 -3 -23 2 -23 18 0 16 5 21 23 18 12 -2 22 -10 22 -18z
m95 -115 c0 -41 -2 -45 -24 -45 -17 0 -26 7 -30 25 -6 23 -11 25 -66 25 -57 0
-60 -1 -60 -25 0 -23 -4 -25 -45 -25 -41 0 -45 2 -45 25 0 18 5 25 20 25 13 0
20 7 20 20 0 19 7 20 115 20 l115 0 0 -45z m1660 -20 c0 -18 -5 -25 -20 -25
-15 0 -20 7 -20 25 0 18 5 25 20 25 15 0 20 -7 20 -25z m320 -45 c0 -15 -7
-20 -25 -20 -18 0 -25 5 -25 20 0 15 7 20 25 20 18 0 25 -5 25 -20z m-230 -95
c0 -68 -2 -75 -20 -75 -11 0 -20 -7 -20 -15 0 -9 -9 -15 -25 -15 -15 0 -25 6
-25 14 0 7 -9 16 -20 19 -11 3 -20 14 -20 25 0 11 9 22 20 25 16 4 20 14 20
44 0 49 4 53 52 53 l38 0 0 -75z m-812 -42 l3 -63 -66 0 -65 0 0 58 c0 32 3
62 7 66 4 4 32 6 63 4 l55 -3 3 -62z m990 0 l3 -63 -66 0 -65 0 0 58 c0 32 3
62 7 66 4 4 32 6 63 4 l55 -3 3 -62z m-1618 -8 c0 -23 -4 -25 -45 -25 -33 0
-45 -4 -45 -15 0 -11 12 -15 45 -15 33 0 45 4 45 15 0 9 9 15 25 15 24 0 25
-3 25 -60 l0 -60 -44 0 c-35 0 -45 4 -49 20 -4 16 -14 20 -46 20 l-41 0 0 65
0 65 65 0 c63 0 65 -1 65 -25z m1710 -65 c0 -33 -3 -40 -20 -40 -17 0 -20 7
-20 40 0 33 3 40 20 40 17 0 20 -7 20 -40z m-1572 -107 c3 -19 -1 -23 -22 -23
-21 0 -26 5 -26 26 0 21 4 25 23 22 14 -2 23 -11 25 -25z m492 -43 c0 -13 -7
-20 -20 -20 -13 0 -20 7 -20 20 0 13 7 20 20 20 13 0 20 -7 20 -20z"/>
<path d="M13340 6155 c0 -18 5 -25 20 -25 15 0 20 7 20 25 0 18 -5 25 -20 25
-15 0 -20 -7 -20 -25z"/>
<path d="M12570 6065 c0 -20 5 -25 25 -25 20 0 25 5 25 25 0 20 -5 25 -25 25
-20 0 -25 -5 -25 -25z"/>
<path d="M13380 5930 c0 -15 7 -20 25 -20 18 0 25 5 25 20 0 15 -7 20 -25 20
-18 0 -25 -5 -25 -20z"/>
<path d="M12570 5885 c0 -23 4 -25 45 -25 41 0 45 2 45 25 0 23 -4 25 -45 25
-41 0 -45 -2 -45 -25z"/>
<path d="M12710 5885 c0 -18 5 -25 20 -25 15 0 20 7 20 25 0 18 -5 25 -20 25
-15 0 -20 -7 -20 -25z"/>
<path d="M13290 5885 c0 -18 -5 -25 -20 -25 -13 0 -20 -7 -20 -20 0 -15 -7
-20 -25 -20 -20 0 -25 -5 -25 -25 0 -20 5 -25 25 -25 18 0 25 -5 25 -20 0 -13
7 -20 20 -20 13 0 20 7 20 20 0 13 -7 20 -20 20 -15 0 -20 7 -20 25 0 18 5 25
20 25 13 0 20 7 20 20 0 15 7 20 25 20 20 0 25 5 25 25 0 20 -5 25 -25 25 -20
0 -25 -5 -25 -25z"/>
<path d="M13380 5815 c0 -41 2 -45 25 -45 18 0 25 -5 25 -20 0 -13 7 -20 20
-20 15 0 20 -7 20 -25 0 -18 -5 -25 -20 -25 -13 0 -20 -7 -20 -20 0 -13 7 -20
20 -20 13 0 20 7 20 20 0 15 7 20 25 20 18 0 25 -5 25 -20 0 -13 7 -20 20 -20
13 0 20 7 20 20 0 18 7 20 70 20 68 0 70 1 70 24 0 22 -5 25 -42 28 -43 3 -43
3 -46 46 -3 37 -1 42 17 42 14 0 21 6 21 20 0 13 -7 20 -20 20 -13 0 -20 -7
-20 -20 0 -15 -7 -20 -25 -20 -20 0 -25 -5 -25 -25 0 -18 -5 -25 -20 -25 -13
0 -20 -7 -20 -20 0 -15 -7 -20 -25 -20 -23 0 -25 4 -25 45 0 38 -3 45 -20 45
-13 0 -20 7 -20 20 0 15 -7 20 -25 20 -23 0 -25 -4 -25 -45z"/>
<path d="M12930 5795 c0 -20 5 -25 25 -25 24 0 25 -2 25 -65 0 -63 -1 -65 -25
-65 -25 0 -25 -1 -25 -90 0 -83 -1 -90 -20 -90 -15 0 -20 -7 -20 -25 0 -18 5
-25 20 -25 15 0 20 7 20 25 0 23 4 25 45 25 41 0 45 -2 45 -25 0 -18 -5 -25
-20 -25 -13 0 -20 -7 -20 -20 0 -13 7 -20 20 -20 13 0 20 7 20 20 0 15 7 20
25 20 18 0 25 -5 25 -20 0 -17 7 -20 45 -20 41 0 45 -2 45 -25 0 -20 -5 -25
-25 -25 -24 0 -25 -2 -25 -65 0 -58 -2 -65 -20 -65 -18 0 -20 -7 -20 -70 l0
-70 45 0 c38 0 45 -3 45 -20 0 -15 -7 -20 -25 -20 -23 0 -25 -4 -25 -45 0 -38
-3 -45 -20 -45 -18 0 -20 -7 -20 -70 0 -68 -1 -70 -25 -70 -23 0 -25 -4 -25
-45 0 -38 -3 -45 -20 -45 -18 0 -20 -7 -20 -65 0 -63 -1 -65 -25 -65 -20 0
-25 -5 -25 -24 0 -15 -7 -26 -20 -29 -16 -4 -20 -14 -20 -46 0 -34 3 -41 19
-41 13 0 21 8 23 23 2 14 11 23 26 25 19 3 22 9 22 48 l0 44 45 0 c41 0 45 -2
45 -25 0 -20 -5 -25 -25 -25 -18 0 -25 -5 -25 -20 0 -15 7 -20 25 -20 20 0 25
-5 25 -25 0 -20 -5 -25 -25 -25 -18 0 -25 -5 -25 -20 0 -15 7 -20 25 -20 23 0
25 -4 25 -45 l0 -45 -45 0 -45 0 0 -70 c0 -62 2 -70 19 -70 13 0 21 -8 23 -22
2 -15 10 -23 23 -23 13 0 21 8 23 23 3 18 -1 22 -22 22 -24 0 -26 3 -26 45 l0
45 45 0 45 0 0 45 c0 41 2 45 25 45 19 0 25 5 25 21 0 12 8 23 20 26 11 3 20
14 20 25 0 14 6 19 23 16 18 -2 23 -10 25 -45 3 -37 0 -42 -20 -45 -19 -2 -24
-10 -26 -44 -2 -32 -8 -43 -23 -47 -25 -7 -25 -37 1 -37 13 0 20 7 20 20 0 15
7 20 25 20 23 0 25 4 25 45 0 38 3 45 19 45 16 0 20 8 23 43 2 35 7 43 26 45
19 3 22 9 22 48 0 37 3 44 20 44 18 0 20 7 20 70 l0 70 -45 0 c-38 0 -45 3
-45 20 0 13 -7 20 -20 20 -15 0 -20 7 -20 25 0 23 -4 25 -45 25 -41 0 -45 -2
-45 -25 0 -20 -5 -25 -25 -25 -25 0 -25 1 -25 90 0 89 0 90 25 90 24 0 25 2
25 70 0 63 2 70 20 70 13 0 20 7 20 20 0 15 7 20 25 20 23 0 25 -4 25 -45 0
-38 3 -45 20 -45 17 0 20 7 20 45 l0 45 45 0 c41 0 45 2 45 25 0 18 -5 25 -20
25 -13 0 -20 7 -20 20 0 18 -7 20 -70 20 l-70 0 0 -45 c0 -38 -3 -45 -20 -45
-15 0 -20 7 -20 25 0 20 -5 25 -25 25 -23 0 -25 4 -25 45 0 41 2 45 25 45 23
0 25 4 25 45 l0 45 45 0 c41 0 45 -2 45 -25 0 -20 -5 -25 -25 -25 -18 0 -25
-5 -25 -20 0 -15 7 -20 25 -20 18 0 25 5 25 20 0 13 7 20 20 20 13 0 20 -7 20
-20 0 -17 7 -20 45 -20 38 0 45 3 45 20 0 15 7 20 25 20 20 0 25 5 25 25 0 18
5 25 20 25 13 0 20 7 20 20 0 13 -7 20 -20 20 -15 0 -20 7 -20 25 0 24 -2 25
-70 25 -63 0 -70 2 -70 20 0 13 -7 20 -20 20 -17 0 -20 7 -20 45 0 41 -2 45
-25 45 -23 0 -25 -4 -25 -45 0 -38 -3 -45 -20 -45 -17 0 -20 7 -20 45 0 41 -2
45 -25 45 -18 0 -25 -5 -25 -20 0 -17 -7 -20 -45 -20 -38 0 -45 3 -45 20 0 15
7 20 25 20 20 0 25 5 25 25 0 24 2 25 65 25 58 0 65 2 65 20 0 17 -7 20 -45
20 -41 0 -45 2 -45 25 0 20 5 25 25 25 18 0 25 5 25 20 0 15 -7 20 -25 20 -18
0 -25 -5 -25 -20 0 -17 -7 -20 -45 -20 -38 0 -45 3 -45 20 0 15 7 20 25 20 20
0 25 5 25 25 0 18 5 25 20 25 13 0 20 7 20 20 0 18 -7 20 -65 20 -63 0 -65 1
-65 25 0 20 -5 25 -25 25 -20 0 -25 -5 -25 -25z m90 -180 c0 -20 5 -25 25 -25
18 0 25 -5 25 -20 0 -15 -7 -20 -25 -20 -20 0 -25 -5 -25 -25 0 -18 -5 -25
-20 -25 -15 0 -20 7 -20 25 0 18 5 25 20 25 13 0 20 7 20 20 0 13 -7 20 -20
20 -15 0 -20 7 -20 25 0 18 5 25 20 25 15 0 20 -7 20 -25z m230 -250 c0 -41
-2 -45 -25 -45 -23 0 -25 4 -25 45 0 41 2 45 25 45 23 0 25 -4 25 -45z m180
-65 c0 -17 -7 -20 -45 -20 -41 0 -45 -2 -45 -25 0 -20 -5 -25 -25 -25 -23 0
-25 4 -25 45 l0 45 70 0 c63 0 70 -2 70 -20z m-320 -630 c0 -13 -7 -20 -20
-20 -15 0 -20 -7 -20 -25 0 -23 4 -25 45 -25 l45 0 0 -45 c0 -41 -2 -45 -25
-45 -20 0 -25 5 -25 25 0 18 -5 25 -20 25 -13 0 -20 7 -20 20 0 15 -7 20 -25
20 -23 0 -25 4 -25 45 l0 45 45 0 c38 0 45 -3 45 -20z m140 0 c0 -13 7 -20 20
-20 15 0 20 -7 20 -25 0 -20 5 -25 25 -25 23 0 25 -4 25 -45 0 -41 -2 -45 -25
-45 -20 0 -25 5 -25 26 0 19 -5 25 -17 22 -13 -2 -19 -15 -21 -46 -3 -37 -6
-42 -28 -42 -19 0 -24 -5 -24 -25 0 -23 -4 -25 -45 -25 -38 0 -45 -3 -45 -20
0 -13 -7 -20 -20 -20 -13 0 -20 7 -20 20 0 13 7 20 19 20 13 0 21 8 23 23 2
18 10 23 45 25 l42 3 3 62 c3 56 5 62 26 65 16 3 22 10 22 28 0 22 -4 24 -45
24 -38 0 -45 3 -45 20 0 17 7 20 45 20 38 0 45 -3 45 -20z"/>
<path d="M12750 5345 c0 -18 -5 -25 -20 -25 -13 0 -20 -7 -20 -20 0 -13 7 -20
20 -20 13 0 20 7 20 20 0 15 7 20 25 20 20 0 25 5 25 25 0 20 -5 25 -25 25
-20 0 -25 -5 -25 -25z"/>
<path d="M12840 5030 c0 -17 -7 -20 -45 -20 l-45 0 0 -45 c0 -38 -3 -45 -20
-45 -15 0 -20 -7 -20 -25 0 -18 5 -25 20 -25 15 0 20 7 20 25 0 20 5 25 25 25
19 0 25 5 25 21 0 14 5 19 18 17 12 -2 18 -15 20 -46 3 -37 6 -42 28 -42 23 0
24 2 24 70 0 63 2 70 20 70 13 0 20 7 20 20 0 17 -7 20 -45 20 -38 0 -45 -3
-45 -20z"/>
<path d="M12710 4805 c0 -18 5 -25 20 -25 15 0 20 7 20 25 0 18 -5 25 -20 25
-15 0 -20 -7 -20 -25z"/>
<path d="M12890 4805 c0 -18 5 -25 20 -25 13 0 20 -7 20 -20 0 -15 7 -20 25
-20 18 0 25 5 25 20 0 15 -7 20 -25 20 -20 0 -25 5 -25 25 0 18 -5 25 -20 25
-15 0 -20 -7 -20 -25z"/>
<path d="M12660 4715 c0 -18 -5 -25 -20 -25 -13 0 -20 -7 -20 -20 0 -15 -7
-20 -25 -20 -18 0 -25 5 -25 20 0 13 -7 20 -20 20 -13 0 -20 -7 -20 -20 0 -13
7 -20 20 -20 15 0 20 -7 20 -25 0 -20 5 -25 25 -25 20 0 25 5 25 25 0 23 4 25
45 25 l45 0 0 45 c0 41 -2 45 -25 45 -20 0 -25 -5 -25 -25z"/>
<path d="M13430 4670 c0 -13 7 -20 20 -20 13 0 20 7 20 20 0 13 -7 20 -20 20
-13 0 -20 -7 -20 -20z"/>
<path d="M12390 4536 c0 -21 5 -26 26 -26 21 0 25 4 22 23 -2 14 -11 23 -25
25 -19 3 -23 -1 -23 -22z"/>
<path d="M13387 4413 c-16 -15 -6 -33 18 -33 18 0 25 5 25 20 0 20 -28 28 -43
13z"/>
<path d="M12260 4355 c0 -18 5 -25 20 -25 15 0 20 7 20 25 0 18 -5 25 -20 25
-15 0 -20 -7 -20 -25z"/>
<path d="M12897 4373 c-4 -3 -7 -24 -7 -45 0 -31 3 -38 20 -38 13 0 20 7 20
20 0 15 7 20 25 20 20 0 25 5 25 25 0 22 -4 25 -38 25 -21 0 -42 -3 -45 -7z"/>
<path d="M12350 4311 c0 -15 6 -21 21 -21 25 0 22 33 -4 38 -12 2 -17 -3 -17
-17z"/>
<path d="M12260 4220 c0 -63 2 -70 20 -70 18 0 20 7 20 70 0 63 -2 70 -20 70
-18 0 -20 -7 -20 -70z"/>
<path d="M13117 4144 c-4 -4 -7 -34 -7 -66 0 -56 1 -58 25 -58 25 0 26 1 23
62 -2 47 -7 64 -18 66 -9 1 -19 0 -23 -4z"/>
<path d="M11760 5120 c0 -15 7 -20 25 -20 18 0 25 5 25 20 0 15 -7 20 -25 20
-18 0 -25 -5 -25 -20z"/>
<path d="M11580 4896 c0 -21 5 -26 26 -26 21 0 25 4 22 23 -2 14 -11 23 -25
25 -19 3 -23 -1 -23 -22z"/>
<path d="M11850 4625 c0 -20 5 -25 25 -25 20 0 25 5 25 25 0 20 -5 25 -25 25
-20 0 -25 -5 -25 -25z"/>
<path d="M11580 5076 c0 -21 5 -26 26 -26 21 0 25 4 22 23 -2 14 -11 23 -25
25 -19 3 -23 -1 -23 -22z"/>
<path d="M12570 5075 c0 -20 5 -25 25 -25 20 0 25 5 25 25 0 20 -5 25 -25 25
-20 0 -25 -5 -25 -25z"/>
<path d="M13560 5075 c0 -20 5 -25 25 -25 20 0 25 5 25 25 0 20 -5 25 -25 25
-20 0 -25 -5 -25 -25z"/>
<path d="M12620 4355 c0 -18 5 -25 20 -25 15 0 20 7 20 25 0 18 -5 25 -20 25
-15 0 -20 -7 -20 -25z"/>
<path d="M12570 4074 c0 -21 4 -25 23 -22 14 2 23 11 25 26 3 18 -1 22 -22 22
-21 0 -26 -5 -26 -26z"/>
<path d="M13562 4078 c2 -15 10 -23 23 -23 13 0 21 8 23 23 3 18 -1 22 -23 22
-22 0 -26 -4 -23 -22z"/>
<path d="M12390 6329 c0 -15 5 -20 22 -17 34 5 37 38 4 38 -20 0 -26 -5 -26
-21z"/>
<path d="M12710 6330 c0 -13 7 -20 20 -20 13 0 20 -7 20 -20 0 -15 7 -20 25
-20 18 0 25 5 25 20 0 13 7 20 20 20 13 0 20 -7 20 -20 0 -17 7 -20 45 -20 41
0 45 -2 45 -25 0 -18 -5 -25 -20 -25 -13 0 -20 -7 -20 -20 0 -15 -7 -20 -25
-20 -18 0 -25 5 -25 20 0 13 -7 20 -20 20 -13 0 -20 -7 -20 -20 0 -13 7 -20
19 -20 13 0 21 -8 23 -22 2 -19 10 -24 46 -26 l42 -3 0 45 c0 42 2 46 25 46
18 0 25 -5 25 -20 0 -13 7 -20 20 -20 15 0 20 -7 20 -25 0 -20 5 -25 25 -25
20 0 25 5 25 25 0 18 5 25 20 25 18 0 20 7 20 65 0 58 -2 65 -20 65 -18 0 -20
-7 -20 -65 0 -63 -1 -65 -25 -65 -23 0 -25 4 -25 45 0 38 -3 45 -20 45 -13 0
-20 7 -20 20 0 13 7 20 20 20 13 0 20 7 20 20 0 19 -7 20 -110 20 -103 0 -110
-1 -110 -20 0 -15 -7 -20 -25 -20 -18 0 -25 5 -25 20 0 13 -7 20 -20 20 -13 0
-20 -7 -20 -20z"/>
<path d="M13562 6198 l3 -153 158 -3 157 -3 0 156 0 155 -160 0 -161 0 3 -152z
m268 2 l0 -111 -107 3 -108 3 -3 108 -3 107 111 0 110 0 0 -110z"/>
<path d="M13652 6203 l3 -68 68 -3 67 -3 0 71 0 70 -70 0 -71 0 3 -67z"/>
<path d="M11718 6248 c-3 -57 -5 -63 -25 -66 -17 -3 -23 -10 -23 -28 0 -22 4
-24 45 -24 l45 0 0 -45 c0 -41 2 -45 25 -45 24 0 25 2 25 70 0 68 -1 70 -25
70 -24 0 -25 2 -25 65 0 58 -2 65 -20 65 -16 0 -19 -8 -22 -62z"/>
<path d="M13110 6065 c0 -20 5 -25 25 -25 20 0 25 5 25 25 0 20 -5 25 -25 25
-20 0 -25 -5 -25 -25z"/>
<path d="M13470 6065 c0 -20 5 -25 25 -25 20 0 25 5 25 25 0 20 -5 25 -25 25
-20 0 -25 -5 -25 -25z"/>
<path d="M11400 5975 c0 -20 5 -25 25 -25 18 0 25 -5 25 -20 0 -13 7 -20 20
-20 17 0 20 7 20 45 l0 45 -45 0 c-41 0 -45 -2 -45 -25z"/>
<path d="M11850 5930 c0 -17 7 -20 45 -20 38 0 45 3 45 20 0 17 -7 20 -45 20
-38 0 -45 -3 -45 -20z"/>
<path d="M11360 5885 c0 -18 5 -25 20 -25 15 0 20 7 20 25 0 18 -5 25 -20 25
-15 0 -20 -7 -20 -25z"/>
<path d="M11487 5840 c-4 -16 -14 -20 -46 -20 l-41 0 0 -45 c0 -38 -3 -45 -20
-45 -15 0 -20 -7 -20 -26 0 -33 33 -30 38 4 2 14 10 22 24 22 12 0 22 8 25 20
10 38 38 19 41 -28 3 -37 1 -42 -17 -42 -14 0 -21 -6 -21 -20 0 -13 7 -20 20
-20 15 0 20 -7 20 -26 0 -21 4 -25 23 -22 14 2 23 11 25 26 5 33 42 30 42 -4
0 -21 4 -25 23 -22 14 2 22 10 22 23 0 13 -8 21 -22 23 -15 2 -23 10 -23 22 0
12 8 20 23 22 14 2 23 11 25 26 3 18 -1 22 -22 22 -21 0 -26 -5 -26 -25 0 -18
-5 -25 -20 -25 -19 0 -20 7 -20 90 0 88 0 90 -24 90 -15 0 -26 -7 -29 -20z
m53 -180 c0 -15 -7 -20 -25 -20 -18 0 -25 5 -25 20 0 15 7 20 25 20 18 0 25
-5 25 -20z"/>
<path d="M11314 5805 c-4 -9 -2 -21 4 -27 15 -15 44 -1 40 19 -4 23 -36 29
-44 8z"/>
<path d="M11314 5626 c-8 -21 3 -36 27 -36 28 0 23 -29 -7 -40 -41 -16 -28
-44 24 -48 34 -3 42 -7 42 -23 0 -14 7 -19 25 -19 23 0 25 4 25 45 0 41 -2 45
-24 45 -15 0 -26 7 -29 20 -3 11 -12 20 -20 20 -9 0 -17 10 -19 22 -4 27 -35
37 -44 14z"/>
<path d="M11988 4898 c-2 -15 -11 -24 -25 -26 -15 -2 -23 -10 -23 -23 0 -17 6
-20 43 -17 42 3 42 3 42 43 0 29 -4 41 -17 43 -11 2 -18 -5 -20 -20z"/>
<path d="M13747 4373 c-4 -3 -7 -15 -7 -25 0 -13 7 -18 25 -18 20 0 25 5 25
25 0 18 -5 25 -18 25 -10 0 -22 -3 -25 -7z"/>
<path d="M13837 4373 c-4 -3 -7 -24 -7 -45 0 -31 -3 -38 -20 -38 -18 0 -20 -7
-20 -70 l0 -70 45 0 45 0 0 115 c0 105 -2 115 -18 115 -10 0 -22 -3 -25 -7z"/>
<path d="M11850 4265 c0 -20 5 -25 25 -25 20 0 25 5 25 25 0 20 -5 25 -25 25
-20 0 -25 -5 -25 -25z"/>
<path d="M11310 3945 l0 -155 160 0 160 0 0 155 0 155 -160 0 -160 0 0 -155z
m270 0 l0 -105 -110 0 -110 0 0 105 0 105 110 0 110 0 0 -105z"/>
<path d="M11400 3950 l0 -70 70 0 71 0 -3 68 -3 67 -67 3 -68 3 0 -71z"/>
<path d="M12897 4014 c-4 -4 -7 -25 -7 -46 l0 -38 46 0 c38 0 45 3 42 18 -2 9
-13 18 -25 20 -13 2 -23 12 -25 24 -3 22 -19 33 -31 22z"/>
<path d="M11670 3925 c0 -39 3 -45 21 -45 12 0 23 -8 26 -19 4 -15 15 -21 47
-23 34 -2 42 -7 44 -25 5 -33 42 -31 42 2 0 20 5 25 25 25 20 0 25 -5 25 -25
0 -18 5 -25 20 -25 14 0 20 7 20 21 0 12 -8 23 -20 26 -16 4 -20 14 -20 49 0
40 -2 44 -25 44 -20 0 -25 -5 -25 -25 0 -23 -4 -25 -45 -25 -39 0 -45 3 -45
21 0 12 -8 23 -19 26 -11 3 -21 13 -24 24 -3 11 -14 19 -26 19 -18 0 -21 -6
-21 -45z"/>
<path d="M12260 3860 c0 -13 7 -20 20 -20 15 0 20 -7 20 -25 0 -23 4 -25 46
-25 41 0 45 2 42 23 -2 18 -10 23 -44 25 -32 2 -43 8 -47 23 -7 25 -37 25 -37
-1z"/>
<path d="M13747 3873 c-16 -15 -6 -33 18 -33 18 0 25 5 25 20 0 20 -28 28 -43
13z"/>
<path d="M13837 3873 c-16 -15 -6 -33 18 -33 18 0 25 5 25 20 0 20 -28 28 -43
13z"/>
<path d="M1502 6038 c-18 -18 -15 -28 8 -28 10 0 24 9 30 20 9 17 8 20 -8 20
-10 0 -23 -5 -30 -12z"/>
<path d="M4430 6030 c-9 -17 -8 -20 8 -20 18 0 42 18 42 32 0 17 -40 7 -50
-12z"/>
<path d="M904 5990 c-48 -19 -71 -100 -43 -152 15 -27 74 -51 110 -43 30 7 69
47 69 71 0 22 -47 17 -53 -4 -13 -51 -87 -20 -87 36 0 56 64 82 85 34 6 -13
19 -22 32 -22 26 0 28 8 12 43 -19 41 -75 57 -125 37z"/>
<path d="M2168 5985 c-51 -29 -60 -115 -16 -162 52 -56 158 -27 158 43 0 21
-37 17 -43 -4 -6 -25 -41 -33 -66 -15 -26 17 -28 74 -5 98 22 22 57 15 69 -12
13 -31 45 -30 45 0 0 51 -87 83 -142 52z"/>
<path d="M3988 5984 c-35 -18 -48 -43 -48 -89 0 -47 24 -81 65 -95 43 -14 80
-4 105 27 27 35 25 53 -5 53 -15 0 -25 -6 -25 -15 0 -8 -9 -19 -20 -25 -46
-24 -87 39 -59 89 19 33 60 35 74 4 6 -14 18 -23 32 -23 39 0 27 52 -18 75
-35 19 -66 18 -101 -1z"/>
<path d="M1060 5895 c0 -95 0 -95 25 -95 22 0 25 4 25 35 0 32 2 35 30 35 28
0 30 -3 30 -35 0 -31 3 -35 26 -35 25 0 26 2 23 48 -2 26 0 57 5 70 5 15 2 31
-8 47 -15 23 -23 25 -86 25 l-70 0 0 -95z m115 30 c0 -15 -8 -21 -32 -23 -30
-3 -33 -1 -33 23 0 24 3 26 33 23 24 -2 32 -8 32 -23z"/>
<path d="M1250 5895 l0 -95 70 0 c63 0 70 2 70 20 0 17 -7 20 -45 20 -38 0
-45 3 -45 20 0 16 7 20 35 20 24 0 35 5 35 15 0 10 -11 15 -35 15 -28 0 -35 4
-35 19 0 16 8 20 42 23 31 2 44 8 46 21 3 15 -5 17 -67 17 l-71 0 0 -95z"/>
<path d="M1438 5898 c-35 -91 -35 -93 -14 -96 13 -3 26 4 34 17 20 29 78 29
87 1 5 -14 15 -20 37 -20 20 0 29 4 25 13 -2 6 -19 49 -37 95 -31 80 -32 82
-64 82 -33 0 -34 -2 -68 -92z m80 5 c10 -31 10 -33 -14 -33 -27 0 -29 6 -14
46 12 31 13 30 28 -13z"/>
<path d="M1682 5973 c2 -11 14 -19 31 -21 27 -3 27 -4 27 -78 0 -72 1 -74 25
-74 24 0 25 2 25 75 0 73 1 75 25 75 18 0 25 5 25 20 0 18 -7 20 -81 20 -71 0
-80 -2 -77 -17z"/>
<path d="M1860 5921 c0 -85 5 -98 42 -117 40 -21 91 -11 118 23 16 20 20 40
20 94 0 67 -1 69 -25 69 -23 0 -24 -3 -27 -72 l-3 -73 -35 0 -35 0 -3 73 c-3
69 -4 72 -27 72 -24 0 -25 -2 -25 -69z"/>
<path d="M2330 5921 c0 -54 4 -74 20 -94 27 -34 78 -44 118 -23 37 19 42 32
42 117 0 62 -2 69 -20 69 -18 0 -20 -7 -20 -63 0 -67 -10 -87 -45 -87 -35 0
-45 20 -45 87 0 61 -1 63 -25 63 -24 0 -25 -2 -25 -69z"/>
<path d="M2530 5895 l0 -95 76 0 c66 0 75 2 72 18 -2 12 -16 18 -48 22 -55 6
-63 32 -12 40 45 7 45 24 0 28 -30 3 -38 7 -38 23 0 16 7 19 45 19 38 0 45 3
45 20 0 18 -7 20 -70 20 l-70 0 0 -95z"/>
<path d="M2700 5896 c0 -89 1 -96 20 -96 18 0 20 7 20 68 1 65 1 66 18 46 9
-12 29 -42 44 -68 23 -39 32 -46 58 -46 l30 0 0 95 c0 94 0 95 -25 95 -22 0
-24 -4 -27 -56 l-3 -56 -30 54 c-28 47 -35 53 -68 56 l-37 3 0 -95z"/>
<path d="M2902 5973 c2 -10 13 -19 26 -21 21 -3 22 -8 22 -78 l0 -75 28 3 c27
3 27 3 26 76 l-2 72 29 0 c22 0 29 5 29 20 0 18 -7 20 -81 20 -71 0 -80 -2
-77 -17z"/>
<path d="M3072 5903 c-18 -48 -32 -91 -32 -95 0 -5 11 -8 24 -8 15 0 26 7 29
20 4 15 14 20 42 20 28 0 38 -5 42 -20 4 -14 14 -20 34 -20 16 0 29 3 29 8 -1
4 -16 45 -34 92 -32 82 -34 85 -67 88 l-34 3 -33 -88z m82 -10 c6 -20 4 -23
-18 -23 -30 0 -29 -2 -15 40 12 34 19 30 33 -17z"/>
<path d="M3341 5953 c12 -21 29 -47 36 -58 7 -11 13 -36 13 -57 0 -34 3 -38
25 -38 22 0 25 4 25 35 0 24 12 54 35 91 19 30 35 57 35 59 0 3 -11 5 -25 5
-17 0 -29 -9 -40 -30 -19 -37 -26 -37 -47 0 -13 23 -24 30 -48 30 l-32 0 23
-37z"/>
<path d="M3600 5895 c0 -95 0 -95 25 -95 22 0 25 4 25 36 0 34 1 35 33 32 28
-3 32 -7 35 -35 3 -27 7 -33 28 -33 21 0 24 5 24 33 0 18 -5 38 -12 45 -9 9
-9 15 0 24 18 18 15 53 -6 71 -13 12 -37 17 -85 17 l-67 0 0 -95z m115 30 c0
-15 -8 -21 -32 -23 -30 -3 -33 -1 -33 23 0 24 3 26 33 23 24 -2 32 -8 32 -23z"/>
<path d="M3790 5895 l0 -95 70 0 c63 0 70 2 70 20 0 17 -7 20 -45 20 -38 0
-45 3 -45 20 0 16 7 20 35 20 24 0 35 5 35 15 0 10 -11 15 -35 15 -28 0 -35 4
-35 19 0 16 8 20 42 23 31 2 44 8 46 21 3 15 -5 17 -67 17 l-71 0 0 -95z"/>
<path d="M4150 5895 c0 -95 0 -95 25 -95 25 0 25 0 25 95 0 95 0 95 -25 95
-25 0 -25 0 -25 -95z"/>
<path d="M4230 5895 l0 -95 65 0 c52 0 69 4 85 20 24 24 25 38 5 67 -10 14
-12 24 -5 28 15 9 12 42 -6 59 -11 11 -35 16 -80 16 l-64 0 0 -95z m108 53
c16 -16 -3 -38 -34 -38 -19 0 -24 5 -24 25 0 19 5 25 23 25 13 0 28 -5 35 -12z
m7 -88 c0 -10 -12 -16 -32 -18 -28 -3 -33 0 -33 18 0 18 5 21 33 18 20 -2 32
-8 32 -18z"/>
<path d="M4410 5895 c0 -95 0 -95 25 -95 25 0 25 0 25 95 0 95 0 95 -25 95
-25 0 -25 0 -25 -95z"/>
<path d="M1125 5440 c3 -5 13 -10 21 -10 8 0 12 5 9 10 -3 6 -13 10 -21 10 -8
0 -12 -4 -9 -10z"/>
<path d="M2237 5393 c-11 -10 -8 -113 3 -113 6 0 10 27 10 60 0 61 -1 65 -13
53z"/>
<path d="M3110 5340 c0 -38 4 -59 10 -55 6 3 10 28 10 55 0 27 -4 52 -10 55
-6 4 -10 -17 -10 -55z"/>
<path d="M3670 5340 c0 -38 4 -59 10 -55 6 3 10 28 10 55 0 27 -4 52 -10 55
-6 4 -10 -17 -10 -55z"/>
<path d="M4230 5340 c0 -33 4 -60 10 -60 6 0 10 27 10 60 0 33 -4 60 -10 60
-6 0 -10 -27 -10 -60z"/>
<path d="M3505 4925 c-50 -49 -22 -135 44 -135 63 0 93 89 46 135 -31 32 -59
32 -90 0z"/>
<path d="M2801 4901 c-7 -24 -15 -49 -18 -57 -4 -10 4 -14 32 -14 35 0 37 1
31 26 -4 15 -13 40 -19 57 l-13 30 -13 -42z"/>
<path d="M1490 4600 c0 -39 1 -41 28 -38 24 3 27 7 27 38 0 31 -3 35 -27 38
-27 3 -28 1 -28 -38z"/>
<path d="M1790 4625 c0 -11 7 -15 23 -13 12 2 22 8 22 13 0 6 -10 11 -22 13
-16 2 -23 -2 -23 -13z"/>
<path d="M1790 4575 c0 -9 9 -15 25 -15 16 0 25 6 25 15 0 9 -9 15 -25 15 -16
0 -25 -6 -25 -15z"/>
<path d="M1936 4637 c-22 -16 -18 -66 6 -80 23 -15 48 8 48 44 0 35 -29 54
-54 36z"/>
<path d="M2235 4630 c-22 -25 -13 -66 17 -76 40 -12 64 48 32 80 -20 21 -27
20 -49 -4z"/>
<path d="M2427 4634 c-4 -4 -7 -23 -7 -41 0 -32 2 -34 28 -31 24 3 27 7 27 38
0 28 -4 36 -20 38 -12 2 -24 0 -28 -4z"/>
<path d="M2720 4625 c0 -11 7 -15 23 -13 12 2 22 8 22 13 0 6 -10 11 -22 13
-16 2 -23 -2 -23 -13z"/>
<path d="M2720 4575 c0 -9 9 -15 25 -15 16 0 25 6 25 15 0 9 -9 15 -25 15 -16
0 -25 -6 -25 -15z"/>
<path d="M3630 4600 c0 -37 2 -41 23 -38 18 2 22 9 22 38 0 29 -4 36 -22 38
-21 3 -23 -1 -23 -38z"/>
<path d="M3776 4615 c-10 -26 -7 -35 9 -35 17 0 19 18 6 38 -7 11 -10 10 -15
-3z"/>
<path d="M7108 1865 c-34 -19 -68 -90 -68 -144 0 -31 6 -48 25 -66 28 -29 43
-30 90 -11 64 27 100 154 58 205 -23 27 -71 35 -105 16z"/>
<path d="M7903 1861 c-41 -25 -63 -69 -70 -135 -7 -69 20 -106 78 -106 68 0
119 72 119 168 0 55 -17 78 -66 87 -19 4 -40 -1 -61 -14z"/>
<path d="M7526 1719 c-65 -9 -96 -30 -96 -64 0 -32 19 -45 65 -45 48 0 75 22
100 83 11 28 12 37 3 36 -7 -1 -40 -5 -72 -10z"/>
<path d="M7373 1393 c-12 -35 -6 -53 17 -53 19 0 40 45 33 68 -8 23 -41 13
-50 -15z"/>
<path d="M7507 1413 c-14 -13 -6 -23 18 -23 16 0 25 6 25 15 0 15 -31 21 -43
8z"/>
<path d="M7763 1373 c-20 -8 -15 -33 6 -33 16 0 31 18 31 36 0 5 -21 4 -37 -3z"/>
<path d="M8260 1420 c0 -5 4 -10 9 -10 6 0 13 5 16 10 3 6 -1 10 -9 10 -9 0
-16 -4 -16 -10z"/>
<path d="M7940 1344 c0 -8 5 -12 10 -9 6 4 8 11 5 16 -9 14 -15 11 -15 -7z"/>
<path d="M8008 1353 c7 -3 16 -2 19 1 4 3 -2 6 -13 5 -11 0 -14 -3 -6 -6z"/>
<path d="M8110 1345 c0 -8 5 -15 10 -15 6 0 10 7 10 15 0 8 -4 15 -10 15 -5 0
-10 -7 -10 -15z"/>
<path d="M8008 1333 c7 -3 16 -2 19 1 4 3 -2 6 -13 5 -11 0 -14 -3 -6 -6z"/>
<path d="M8510 1345 c0 -9 5 -15 11 -13 6 2 11 8 11 13 0 5 -5 11 -11 13 -6 2
-11 -4 -11 -13z"/>
</g>
</svg>
